<?xml version="1.0" encoding="UTF-8"?>
<!DOCTYPE svg PUBLIC "-//W3C//DTD SVG 1.1//EN" "http://www.w3.org/Graphics/SVG/1.1/DTD/svg11.dtd">
<svg xmlns="http://www.w3.org/2000/svg" version="1.1" width="196px" height="174px" style="shape-rendering:geometricPrecision; text-rendering:geometricPrecision; image-rendering:optimizeQuality; fill-rule:evenodd; clip-rule:evenodd" xmlns:xlink="http://www.w3.org/1999/xlink">
<g><path style="opacity:1" fill="#000000" d="M -0.5,-0.5 C 64.8333,-0.5 130.167,-0.5 195.5,-0.5C 195.5,57.5 195.5,115.5 195.5,173.5C 130.167,173.5 64.8333,173.5 -0.5,173.5C -0.5,115.5 -0.5,57.5 -0.5,-0.5 Z"/></g>
<g><path style="opacity:1" fill="#212121" d="M 142.5,17.5 C 141.833,17.5 141.167,17.5 140.5,17.5C 139.833,17.5 139.167,17.5 138.5,17.5C 110.338,16.502 82.0049,16.1687 53.5,16.5C 53.9175,15.7784 54.5842,15.2784 55.5,15C 83.5,14.3333 111.5,14.3333 139.5,15C 140.571,15.8518 141.571,16.6851 142.5,17.5 Z"/></g>
<g><path style="opacity:1" fill="#777777" d="M 53.5,16.5 C 82.0049,16.1687 110.338,16.502 138.5,17.5C 110.825,17.1669 83.1586,17.5002 55.5,18.5C 54.3984,19.1757 53.3984,19.8423 52.5,20.5C 51.8333,20.8333 51.1667,21.1667 50.5,21.5C 50.1667,21.5 49.8333,21.5 49.5,21.5C 50.1667,20.5 50.8333,19.5 51.5,18.5C 52.8333,18.5 53.5,17.8333 53.5,16.5 Z"/></g>
<g><path style="opacity:1" fill="#cdcdcd" d="M 138.5,17.5 C 139.167,17.5 139.833,17.5 140.5,17.5C 140.973,18.9063 141.973,19.573 143.5,19.5C 143.833,20.1667 144.167,20.8333 144.5,21.5C 142.188,20.6805 139.854,19.8471 137.5,19C 110.833,18.3333 84.1667,18.3333 57.5,19C 56.0953,20.2692 54.4286,20.7692 52.5,20.5C 53.3984,19.8423 54.3984,19.1757 55.5,18.5C 83.1586,17.5002 110.825,17.1669 138.5,17.5 Z"/></g>
<g><path style="opacity:1" fill="#fdfdfd" d="M 144.5,21.5 C 145.605,22.6005 146.938,23.2671 148.5,23.5C 148.5,24.1667 148.5,24.8333 148.5,25.5C 149.891,27.921 150.725,30.5877 151,33.5C 151.667,34.1667 152.333,34.8333 153,35.5C 153.5,65.4981 153.667,95.4981 153.5,125.5C 150.711,128.156 149.044,131.489 148.5,135.5C 145.542,137.215 142.876,139.215 140.5,141.5C 139.167,141.5 137.833,141.5 136.5,141.5C 109.141,141.799 81.808,141.465 54.5,140.5C 53.609,139.89 52.609,139.557 51.5,139.5C 50.0892,137.086 48.0892,135.419 45.5,134.5C 43.1912,130.908 42.0245,126.908 42,122.5C 41.3333,93.5 41.3333,64.5 42,35.5C 42.4396,33.1341 42.9396,30.8008 43.5,28.5C 46.1667,26.5 48.5,24.1667 50.5,21.5C 51.1667,21.1667 51.8333,20.8333 52.5,20.5C 54.4286,20.7692 56.0953,20.2692 57.5,19C 84.1667,18.3333 110.833,18.3333 137.5,19C 139.854,19.8471 142.188,20.6805 144.5,21.5 Z"/></g>
<g><path style="opacity:1" fill="#4f4f4f" d="M 140.5,17.5 C 141.167,17.5 141.833,17.5 142.5,17.5C 142.833,18.1667 143.167,18.8333 143.5,19.5C 141.973,19.573 140.973,18.9063 140.5,17.5 Z"/></g>
<g><path style="opacity:1" fill="#6f6f6f" d="M 143.5,19.5 C 145.749,20.0798 147.415,21.4131 148.5,23.5C 146.938,23.2671 145.605,22.6005 144.5,21.5C 144.167,20.8333 143.833,20.1667 143.5,19.5 Z"/></g>
<g><path style="opacity:1" fill="#484848" d="M 51.5,18.5 C 50.8333,19.5 50.1667,20.5 49.5,21.5C 46.7573,23.2393 44.7573,25.5726 43.5,28.5C 41.8958,29.287 41.2291,30.6203 41.5,32.5C 40.8333,32.8333 40.1667,33.1667 39.5,33.5C 41.284,26.7171 45.284,21.7171 51.5,18.5 Z"/></g>
<g><path style="opacity:1" fill="#b4b4b4" d="M 49.5,21.5 C 49.8333,21.5 50.1667,21.5 50.5,21.5C 48.5,24.1667 46.1667,26.5 43.5,28.5C 44.7573,25.5726 46.7573,23.2393 49.5,21.5 Z"/></g>
<g><path style="opacity:1" fill="#636363" d="M 148.5,23.5 C 150.914,24.9108 152.581,26.9108 153.5,29.5C 151.833,28.1667 150.167,26.8333 148.5,25.5C 148.5,24.8333 148.5,24.1667 148.5,23.5 Z"/></g>
<g><path style="opacity:1" fill="#474747" d="M 153.5,29.5 C 154.558,30.6002 155.392,31.9336 156,33.5C 156.831,64.3361 156.664,95.0027 155.5,125.5C 155.831,95.3287 155.498,65.3287 154.5,35.5C 153.85,33.5648 153.517,31.5648 153.5,29.5 Z"/></g>
<g><path style="opacity:1" fill="#979797" d="M 41.5,32.5 C 40.5151,63.4563 40.1818,94.4563 40.5,125.5C 39.5019,95.0045 39.1685,64.3379 39.5,33.5C 40.1667,33.1667 40.8333,32.8333 41.5,32.5 Z"/></g>
<g><path style="opacity:1" fill="#d0d0d0" d="M 43.5,28.5 C 42.9396,30.8008 42.4396,33.1341 42,35.5C 41.3333,64.5 41.3333,93.5 42,122.5C 42.0245,126.908 43.1912,130.908 45.5,134.5C 44.8333,134.167 44.1667,133.833 43.5,133.5C 43.573,131.973 42.9063,130.973 41.5,130.5C 40.6993,128.958 40.366,127.292 40.5,125.5C 40.1818,94.4563 40.5151,63.4563 41.5,32.5C 41.2291,30.6203 41.8958,29.287 43.5,28.5 Z"/></g>
<g><path style="opacity:1" fill="#d8d8d8" d="M 148.5,25.5 C 150.167,26.8333 151.833,28.1667 153.5,29.5C 153.517,31.5648 153.85,33.5648 154.5,35.5C 154.831,65.6713 154.498,95.6713 153.5,125.5C 153.667,95.4981 153.5,65.4981 153,35.5C 152.333,34.8333 151.667,34.1667 151,33.5C 150.725,30.5877 149.891,27.921 148.5,25.5 Z"/></g>
<g><path style="opacity:1" fill="#323232" d="M 68.5,43.5 C 78.992,42.3412 89.6586,42.1745 100.5,43C 101.056,43.3826 101.389,43.8826 101.5,44.5C 101.167,44.5 100.833,44.5 100.5,44.5C 100.167,44.5 99.8333,44.5 99.5,44.5C 89.3468,43.5058 79.0135,43.1724 68.5,43.5 Z"/></g>
<g><path style="opacity:1" fill="#efefef" d="M 108.5,41.5 C 101.07,35.9726 92.5699,33.9726 83,35.5C 77.1667,35.6667 71.3333,35.8333 65.5,36C 64.536,37.7255 63.8693,39.5588 63.5,41.5C 62.0695,41.4208 60.7362,41.7542 59.5,42.5C 58.0756,55.8769 58.2423,69.2103 60,82.5C 61.6095,83.1466 63.1095,83.98 64.5,85C 76.6738,85.8263 88.6738,85.6597 100.5,84.5C 102.95,84.702 105.283,84.3686 107.5,83.5C 107.5,84.5 107.5,85.5 107.5,86.5C 92.8295,86.6666 78.1629,86.4999 63.5,86C 61.4226,85.1931 59.5893,84.0264 58,82.5C 57.1673,68.8212 57.3339,55.1545 58.5,41.5C 61.1871,39.9699 63.1871,37.8032 64.5,35C 76.7624,33.3943 89.0957,33.061 101.5,34C 106.794,33.7924 109.127,36.2924 108.5,41.5 Z"/></g>
<g><path style="opacity:1" fill="#cccccc" d="M 108.5,41.5 C 108.829,55.6766 108.496,69.6766 107.5,83.5C 107.5,81.5 107.5,79.5 107.5,77.5C 107.667,65.8286 107.5,54.1619 107,42.5C 105.989,41.6634 104.822,41.33 103.5,41.5C 102.235,40.5207 100.901,39.5207 99.5,38.5C 90.1845,37.3346 80.8511,37.1679 71.5,38C 69.6803,38.2004 68.347,39.0337 67.5,40.5C 67.1667,40.5 66.8333,40.5 66.5,40.5C 65.391,40.5569 64.391,40.8902 63.5,41.5C 63.8693,39.5588 64.536,37.7255 65.5,36C 71.3333,35.8333 77.1667,35.6667 83,35.5C 92.5699,33.9726 101.07,35.9726 108.5,41.5 Z"/></g>
<g><path style="opacity:1" fill="#acacac" d="M 103.5,41.5 C 102.833,41.5 102.167,41.5 101.5,41.5C 100.833,41.5 100.167,41.5 99.5,41.5C 89.0131,40.5056 78.3464,40.1722 67.5,40.5C 68.347,39.0337 69.6803,38.2004 71.5,38C 80.8511,37.1679 90.1845,37.3346 99.5,38.5C 100.901,39.5207 102.235,40.5207 103.5,41.5 Z"/></g>
<g><path style="opacity:1" fill="#d6d6d6" d="M 63.5,41.5 C 61.2995,43.2624 60.1328,45.5958 60,48.5C 59.5002,58.1609 59.3335,67.8276 59.5,77.5C 60.5,77.5 61.5,77.5 62.5,77.5C 62.8288,79.9908 63.8288,82.1575 65.5,84C 77.1619,84.4999 88.8286,84.6665 100.5,84.5C 88.6738,85.6597 76.6738,85.8263 64.5,85C 63.1095,83.98 61.6095,83.1466 60,82.5C 58.2423,69.2103 58.0756,55.8769 59.5,42.5C 60.7362,41.7542 62.0695,41.4208 63.5,41.5 Z"/></g>
<g><path style="opacity:1" fill="#7f7f7f" d="M 66.5,40.5 C 66.8333,40.5 67.1667,40.5 67.5,40.5C 78.3464,40.1722 89.0131,40.5056 99.5,41.5C 88.8281,41.3335 78.1615,41.5002 67.5,42C 66.944,42.3826 66.6107,42.8826 66.5,43.5C 65.8333,43.5 65.5,43.8333 65.5,44.5C 64.5056,54.9869 64.1722,65.6536 64.5,76.5C 63.5064,67.3483 63.1731,58.015 63.5,48.5C 63.0156,45.2118 64.0156,42.5452 66.5,40.5 Z"/></g>
<g><path style="opacity:1" fill="#b2b2b2" d="M 66.5,40.5 C 64.0156,42.5452 63.0156,45.2118 63.5,48.5C 62.5062,57.9856 62.1729,67.6522 62.5,77.5C 61.5,77.5 60.5,77.5 59.5,77.5C 59.3335,67.8276 59.5002,58.1609 60,48.5C 60.1328,45.5958 61.2995,43.2624 63.5,41.5C 64.391,40.8902 65.391,40.5569 66.5,40.5 Z"/></g>
<g><path style="opacity:1" fill="#545454" d="M 99.5,41.5 C 100.167,41.5 100.833,41.5 101.5,41.5C 102.641,42.339 103.974,43.0057 105.5,43.5C 106.499,54.8138 106.832,66.1471 106.5,77.5C 106.167,77.5 105.833,77.5 105.5,77.5C 105.827,67.6522 105.494,57.9856 104.5,48.5C 103.488,47.1283 102.488,45.795 101.5,44.5C 101.389,43.8826 101.056,43.3826 100.5,43C 89.6586,42.1745 78.992,42.3412 68.5,43.5C 67.8333,43.5 67.1667,43.5 66.5,43.5C 66.6107,42.8826 66.944,42.3826 67.5,42C 78.1615,41.5002 88.8281,41.3335 99.5,41.5 Z"/></g>
<g><path style="opacity:1" fill="#848484" d="M 101.5,41.5 C 102.167,41.5 102.833,41.5 103.5,41.5C 104.822,41.33 105.989,41.6634 107,42.5C 107.5,54.1619 107.667,65.8286 107.5,77.5C 107.167,77.5 106.833,77.5 106.5,77.5C 106.832,66.1471 106.499,54.8138 105.5,43.5C 103.974,43.0057 102.641,42.339 101.5,41.5 Z"/></g>
<g><path style="opacity:1" fill="#313131" d="M 101.5,44.5 C 102.488,45.795 103.488,47.1283 104.5,48.5C 104.666,56.84 104.5,65.1733 104,73.5C 103.764,75.1193 102.931,76.1193 101.5,76.5C 101.5,65.8333 101.5,55.1667 101.5,44.5 Z"/></g>
<g><path style="opacity:1" fill="#1f1f1f" d="M 66.5,43.5 C 67.1667,43.5 67.8333,43.5 68.5,43.5C 79.0135,43.1724 89.3468,43.5058 99.5,44.5C 90.1667,44.5 80.8333,44.5 71.5,44.5C 70.1667,44.5 68.8333,44.5 67.5,44.5C 67.5,55.1667 67.5,65.8333 67.5,76.5C 66.5054,65.6794 66.1721,54.6794 66.5,43.5 Z"/></g>
<g><path style="opacity:1" fill="#161616" d="M 71.5,44.5 C 70.4937,45.3957 70.4937,46.0623 71.5,46.5C 71.2172,47.2891 70.7172,47.9558 70,48.5C 69.1782,56.0118 69.3448,63.3451 70.5,70.5C 70.8333,70.5 71.1667,70.5 71.5,70.5C 71.5,71.1667 71.8333,71.5 72.5,71.5C 79.6549,72.6552 86.9882,72.8218 94.5,72C 95.8271,64.4015 95.8271,56.9015 94.5,49.5C 94.5,48.8333 94.1667,48.5 93.5,48.5C 93.5,48.1667 93.5,47.8333 93.5,47.5C 94.4959,47.4142 95.3292,47.7476 96,48.5C 96.6667,56.5 96.6667,64.5 96,72.5C 95.5,73 95,73.5 94.5,74C 86.8117,74.1685 79.1451,74.6685 71.5,75.5C 80.8096,76.4983 90.1429,76.8316 99.5,76.5C 100.43,65.872 100.763,55.2053 100.5,44.5C 100.833,44.5 101.167,44.5 101.5,44.5C 101.5,55.1667 101.5,65.8333 101.5,76.5C 101.5,76.8333 101.5,77.1667 101.5,77.5C 90.186,78.7871 78.8526,78.7871 67.5,77.5C 67.5,77.1667 67.5,76.8333 67.5,76.5C 67.5,65.8333 67.5,55.1667 67.5,44.5C 68.8333,44.5 70.1667,44.5 71.5,44.5 Z"/></g>
<g><path style="opacity:1" fill="#626262" d="M 93.5,47.5 C 93.5,47.8333 93.5,48.1667 93.5,48.5C 86.6457,48.176 79.979,48.5093 73.5,49.5C 72.8333,49.5 72.5,49.8333 72.5,50.5C 71.5093,56.979 71.176,63.6457 71.5,70.5C 71.1667,70.5 70.8333,70.5 70.5,70.5C 70.3337,63.4921 70.5004,56.4921 71,49.5C 71.5,49 72,48.5 72.5,48C 79.4921,47.5004 86.4921,47.3337 93.5,47.5 Z"/></g>
<g><path style="opacity:1" fill="#2e2e2e" d="M 71.5,46.5 C 79.0191,46.175 86.3524,46.5084 93.5,47.5C 86.4921,47.3337 79.4921,47.5004 72.5,48C 72,48.5 71.5,49 71,49.5C 70.5004,56.4921 70.3337,63.4921 70.5,70.5C 69.3448,63.3451 69.1782,56.0118 70,48.5C 70.7172,47.9558 71.2172,47.2891 71.5,46.5 Z"/></g>
<g><path style="opacity:1" fill="#060606" d="M 71.5,44.5 C 80.8333,44.5 90.1667,44.5 99.5,44.5C 99.8333,44.5 100.167,44.5 100.5,44.5C 100.763,55.2053 100.43,65.872 99.5,76.5C 90.1429,76.8316 80.8096,76.4983 71.5,75.5C 79.1451,74.6685 86.8117,74.1685 94.5,74C 95,73.5 95.5,73 96,72.5C 96.6667,64.5 96.6667,56.5 96,48.5C 95.3292,47.7476 94.4959,47.4142 93.5,47.5C 86.3524,46.5084 79.0191,46.175 71.5,46.5C 70.4937,46.0623 70.4937,45.3957 71.5,44.5 Z"/></g>
<g><path style="opacity:1" fill="#3e3e3e" d="M 66.5,43.5 C 66.1721,54.6794 66.5054,65.6794 67.5,76.5C 67.5,76.8333 67.5,77.1667 67.5,77.5C 68.8083,78.2323 70.1416,79.0656 71.5,80C 80.8333,80.6667 90.1667,80.6667 99.5,80C 100.381,79.2917 101.047,78.4584 101.5,77.5C 101.5,77.1667 101.5,76.8333 101.5,76.5C 102.931,76.1193 103.764,75.1193 104,73.5C 104.5,65.1733 104.666,56.84 104.5,48.5C 105.494,57.9856 105.827,67.6522 105.5,77.5C 103.027,77.736 101.36,79.0693 100.5,81.5C 89.5,82.8333 78.5,82.8333 67.5,81.5C 66.9017,80.2054 66.4017,78.8721 66,77.5C 65.5002,66.505 65.3335,55.505 65.5,44.5C 65.5,43.8333 65.8333,43.5 66.5,43.5 Z"/></g>
<g><path style="opacity:1" fill="#5d5d5d" d="M 94.5,49.5 C 95.8271,56.9015 95.8271,64.4015 94.5,72C 86.9882,72.8218 79.6549,72.6552 72.5,71.5C 79.6866,71.8245 86.6866,71.4912 93.5,70.5C 94.4912,63.6866 94.8245,56.6866 94.5,49.5 Z"/></g>
<g><path style="opacity:1" fill="#a0a0a0" d="M 72.5,50.5 C 72.1765,57.0221 72.5098,63.3554 73.5,69.5C 79.979,70.4907 86.6457,70.824 93.5,70.5C 86.6866,71.4912 79.6866,71.8245 72.5,71.5C 71.8333,71.5 71.5,71.1667 71.5,70.5C 71.176,63.6457 71.5093,56.979 72.5,50.5 Z"/></g>
<g><path style="opacity:1" fill="#d8d8d8" d="M 73.5,49.5 C 80.1667,49.5 86.8333,49.5 93.5,49.5C 93.5,56.5 93.5,63.5 93.5,70.5C 86.6457,70.824 79.979,70.4907 73.5,69.5C 72.5098,63.3554 72.1765,57.0221 72.5,50.5C 72.5,49.8333 72.8333,49.5 73.5,49.5 Z"/></g>
<g><path style="opacity:1" fill="#a2a2a2" d="M 73.5,49.5 C 79.979,48.5093 86.6457,48.176 93.5,48.5C 94.1667,48.5 94.5,48.8333 94.5,49.5C 94.8245,56.6866 94.4912,63.6866 93.5,70.5C 93.5,63.5 93.5,56.5 93.5,49.5C 86.8333,49.5 80.1667,49.5 73.5,49.5 Z"/></g>
<g><path style="opacity:1" fill="#fdfdfd" d="M 73.5,69.5 C 73.5,63.1667 73.5,56.8333 73.5,50.5C 79.8333,50.5 86.1667,50.5 92.5,50.5C 92.5,56.8333 92.5,63.1667 92.5,69.5C 86.1667,69.5 79.8333,69.5 73.5,69.5 Z"/></g>
<g><path style="opacity:1" fill="#606060" d="M 65.5,44.5 C 65.3335,55.505 65.5002,66.505 66,77.5C 66.4017,78.8721 66.9017,80.2054 67.5,81.5C 78.5,82.8333 89.5,82.8333 100.5,81.5C 101.36,79.0693 103.027,77.736 105.5,77.5C 105.833,77.5 106.167,77.5 106.5,77.5C 106.5,77.8333 106.5,78.1667 106.5,78.5C 103.833,79.1667 102.167,80.8333 101.5,83.5C 89.8286,83.6665 78.1619,83.4999 66.5,83C 65.6028,80.9129 64.9361,78.7463 64.5,76.5C 64.1722,65.6536 64.5056,54.9869 65.5,44.5 Z"/></g>
<g><path style="opacity:1" fill="#9d9d9d" d="M 63.5,48.5 C 63.1731,58.015 63.5064,67.3483 64.5,76.5C 64.9361,78.7463 65.6028,80.9129 66.5,83C 78.1619,83.4999 89.8286,83.6665 101.5,83.5C 103.117,82.962 104.784,82.6287 106.5,82.5C 106.5,81.1667 106.5,79.8333 106.5,78.5C 106.5,78.1667 106.5,77.8333 106.5,77.5C 106.833,77.5 107.167,77.5 107.5,77.5C 107.5,79.5 107.5,81.5 107.5,83.5C 105.283,84.3686 102.95,84.702 100.5,84.5C 88.8286,84.6665 77.1619,84.4999 65.5,84C 63.8288,82.1575 62.8288,79.9908 62.5,77.5C 62.1729,67.6522 62.5062,57.9856 63.5,48.5 Z"/></g>
<g><path style="opacity:1" fill="#858585" d="M 106.5,78.5 C 106.5,79.8333 106.5,81.1667 106.5,82.5C 104.784,82.6287 103.117,82.962 101.5,83.5C 102.167,80.8333 103.833,79.1667 106.5,78.5 Z"/></g>
<g><path style="opacity:1" fill="#2d2d2d" d="M 67.5,77.5 C 78.8526,78.7871 90.186,78.7871 101.5,77.5C 101.047,78.4584 100.381,79.2917 99.5,80C 90.1667,80.6667 80.8333,80.6667 71.5,80C 70.1416,79.0656 68.8083,78.2323 67.5,77.5 Z"/></g>
<g><path style="opacity:1" fill="#b2b2b2" d="M 129.5,91.5 C 108.164,91.3334 86.8307,91.5 65.5,92C 64.944,92.3826 64.6107,92.8826 64.5,93.5C 63.5489,94.9187 63.2155,96.5853 63.5,98.5C 62.5386,96.7354 62.2053,94.7354 62.5,92.5C 63.2891,92.2172 63.9558,91.7172 64.5,91C 86.3372,90.1705 108.004,90.3372 129.5,91.5 Z"/></g>
<g><path style="opacity:1" fill="#9c9c9c" d="M 129.5,91.5 C 130.5,91.5 131.5,91.5 132.5,91.5C 132.806,94.3854 132.473,97.0521 131.5,99.5C 131.893,96.4867 131.226,93.8201 129.5,91.5 Z"/></g>
<g><path style="opacity:1" fill="#353535" d="M 129.5,91.5 C 131.226,93.8201 131.893,96.4867 131.5,99.5C 109.167,99.5 86.8333,99.5 64.5,99.5C 63.8333,99.5 63.5,99.1667 63.5,98.5C 63.2155,96.5853 63.5489,94.9187 64.5,93.5C 64.6107,92.8826 64.944,92.3826 65.5,92C 86.8307,91.5 108.164,91.3334 129.5,91.5 Z"/></g>
<g><path style="opacity:1" fill="#020202" d="M 64.5,93.5 C 86.1692,93.3334 107.836,93.5 129.5,94C 130.38,95.3561 130.714,96.8561 130.5,98.5C 108.5,98.5 86.5,98.5 64.5,98.5C 64.5,96.8333 64.5,95.1667 64.5,93.5 Z"/></g>
<g><path style="opacity:1" fill="#a0a0a0" d="M 64.5,99.5 C 86.8333,99.5 109.167,99.5 131.5,99.5C 131.5,100.833 130.833,101.5 129.5,101.5C 108.164,101.667 86.8307,101.5 65.5,101C 64.944,100.617 64.6107,100.117 64.5,99.5 Z"/></g>
<g><path style="opacity:1" fill="#e2e2e2" d="M 62.5,92.5 C 62.2053,94.7354 62.5386,96.7354 63.5,98.5C 63.5,99.1667 63.8333,99.5 64.5,99.5C 64.6107,100.117 64.944,100.617 65.5,101C 86.8307,101.5 108.164,101.667 129.5,101.5C 107.663,102.828 85.663,102.828 63.5,101.5C 61.3676,98.5955 61.0343,95.5955 62.5,92.5 Z"/></g>
<g><path style="opacity:1" fill="#0f0f0f" d="M 65.5,112.5 C 81.3422,112.17 97.0089,112.504 112.5,113.5C 112.5,115.167 112.5,116.833 112.5,118.5C 96.8333,118.5 81.1667,118.5 65.5,118.5C 64.5489,117.081 64.2155,115.415 64.5,113.5C 64.5,112.833 64.8333,112.5 65.5,112.5 Z"/></g>
<g><path style="opacity:1" fill="#989898" d="M 65.5,111.5 C 65.5,111.833 65.5,112.167 65.5,112.5C 64.8333,112.5 64.5,112.833 64.5,113.5C 63.5489,114.919 63.2155,116.585 63.5,118.5C 62.3775,116.712 62.2109,114.712 63,112.5C 63.6708,111.748 64.5041,111.414 65.5,111.5 Z"/></g>
<g><path style="opacity:1" fill="#838383" d="M 65.5,112.5 C 65.5,112.167 65.5,111.833 65.5,111.5C 81.8333,111.5 98.1667,111.5 114.5,111.5C 115.388,114.054 115.721,116.721 115.5,119.5C 114.609,120.11 113.609,120.443 112.5,120.5C 112.5,120.167 112.5,119.833 112.5,119.5C 113.947,118.866 114.613,117.699 114.5,116C 114.316,114.624 113.649,113.791 112.5,113.5C 97.0089,112.504 81.3422,112.17 65.5,112.5 Z"/></g>
<g><path style="opacity:1" fill="#2a2a2a" d="M 112.5,113.5 C 113.649,113.791 114.316,114.624 114.5,116C 114.613,117.699 113.947,118.866 112.5,119.5C 96.6578,119.83 80.9911,119.496 65.5,118.5C 81.1667,118.5 96.8333,118.5 112.5,118.5C 112.5,116.833 112.5,115.167 112.5,113.5 Z"/></g>
<g><path style="opacity:1" fill="#595959" d="M 64.5,113.5 C 64.2155,115.415 64.5489,117.081 65.5,118.5C 80.9911,119.496 96.6578,119.83 112.5,119.5C 112.5,119.833 112.5,120.167 112.5,120.5C 95.7991,121.152 79.4658,120.485 63.5,118.5C 63.2155,116.585 63.5489,114.919 64.5,113.5 Z"/></g>
<g><path style="opacity:1" fill="#cecece" d="M 114.5,111.5 C 98.1667,111.5 81.8333,111.5 65.5,111.5C 64.5041,111.414 63.6708,111.748 63,112.5C 62.2109,114.712 62.3775,116.712 63.5,118.5C 79.4658,120.485 95.7991,121.152 112.5,120.5C 113.609,120.443 114.609,120.11 115.5,119.5C 115.423,120.75 114.756,121.583 113.5,122C 96.5,122.667 79.5,122.667 62.5,122C 59.6169,117.731 59.9502,113.731 63.5,110C 80.1667,109.333 96.8333,109.333 113.5,110C 114.056,110.383 114.389,110.883 114.5,111.5 Z"/></g>
<g><path style="opacity:1" fill="#7d7d7d" d="M 154.5,35.5 C 155.498,65.3287 155.831,95.3287 155.5,125.5C 155.34,127.153 154.674,128.486 153.5,129.5C 153.5,128.167 153.5,126.833 153.5,125.5C 154.498,95.6713 154.831,65.6713 154.5,35.5 Z"/></g>
<g><path style="opacity:1" fill="#cecece" d="M 153.5,125.5 C 153.5,126.833 153.5,128.167 153.5,129.5C 153.5,129.833 153.5,130.167 153.5,130.5C 152.094,130.973 151.427,131.973 151.5,133.5C 150.5,133.833 149.833,134.5 149.5,135.5C 149.167,135.5 148.833,135.5 148.5,135.5C 149.044,131.489 150.711,128.156 153.5,125.5 Z"/></g>
<g><path style="opacity:1" fill="#585858" d="M 41.5,130.5 C 42.9063,130.973 43.573,131.973 43.5,133.5C 42.0937,133.027 41.427,132.027 41.5,130.5 Z"/></g>
<g><path style="opacity:1" fill="#585858" d="M 153.5,130.5 C 153.573,132.027 152.906,133.027 151.5,133.5C 151.427,131.973 152.094,130.973 153.5,130.5 Z"/></g>
<g><path style="opacity:1" fill="#585858" d="M 43.5,133.5 C 44.1667,133.833 44.8333,134.167 45.5,134.5C 46.8333,136.167 48.1667,137.833 49.5,139.5C 46.5,138.5 44.5,136.5 43.5,133.5 Z"/></g>
<g><path style="opacity:1" fill="#c3c3c3" d="M 45.5,134.5 C 48.0892,135.419 50.0892,137.086 51.5,139.5C 50.8333,139.5 50.1667,139.5 49.5,139.5C 48.1667,137.833 46.8333,136.167 45.5,134.5 Z"/></g>
<g><path style="opacity:1" fill="#333333" d="M 151.5,133.5 C 149.918,138.084 146.918,141.417 142.5,143.5C 140.833,143.5 139.167,143.5 137.5,143.5C 138.5,142.833 139.5,142.167 140.5,141.5C 144.25,140.589 147.25,138.589 149.5,135.5C 149.833,134.5 150.5,133.833 151.5,133.5 Z"/></g>
<g><path style="opacity:1" fill="#aeaeae" d="M 148.5,135.5 C 148.833,135.5 149.167,135.5 149.5,135.5C 147.25,138.589 144.25,140.589 140.5,141.5C 142.876,139.215 145.542,137.215 148.5,135.5 Z"/></g>
<g><path style="opacity:1" fill="#636363" d="M 49.5,139.5 C 50.1667,139.5 50.8333,139.5 51.5,139.5C 51.8333,140.167 52.1667,140.833 52.5,141.5C 50.9731,141.573 49.9731,140.906 49.5,139.5 Z"/></g>
<g><path style="opacity:1" fill="#e4e4e4" d="M 54.5,140.5 C 81.808,141.465 109.141,141.799 136.5,141.5C 110.337,142.663 84.0032,142.83 57.5,142C 56.2625,141.768 55.2625,141.268 54.5,140.5 Z"/></g>
<g><path style="opacity:1" fill="#a8a8a8" d="M 51.5,139.5 C 52.609,139.557 53.609,139.89 54.5,140.5C 55.2625,141.268 56.2625,141.768 57.5,142C 84.0032,142.83 110.337,142.663 136.5,141.5C 137.833,141.5 139.167,141.5 140.5,141.5C 139.5,142.167 138.5,142.833 137.5,143.5C 110.167,143.5 82.8333,143.5 55.5,143.5C 54.7095,142.599 53.7095,141.932 52.5,141.5C 52.1667,140.833 51.8333,140.167 51.5,139.5 Z"/></g>
<g><path style="opacity:1" fill="#262626" d="M 55.5,143.5 C 82.8333,143.5 110.167,143.5 137.5,143.5C 139.167,143.5 140.833,143.5 142.5,143.5C 141.737,144.268 140.737,144.768 139.5,145C 125.5,145.167 111.5,145.333 97.5,145.5C 83.1504,145.499 69.1504,144.833 55.5,143.5 Z"/></g>
</svg>
