<?xml version="1.0" encoding="UTF-8"?>
<!DOCTYPE svg PUBLIC "-//W3C//DTD SVG 1.1//EN" "http://www.w3.org/Graphics/SVG/1.1/DTD/svg11.dtd">
<svg xmlns="http://www.w3.org/2000/svg" version="1.1" width="196px" height="188px" style="shape-rendering:geometricPrecision; text-rendering:geometricPrecision; image-rendering:optimizeQuality; fill-rule:evenodd; clip-rule:evenodd" xmlns:xlink="http://www.w3.org/1999/xlink">
<g><path style="opacity:1" fill="#000000" d="M -0.5,-0.5 C 64.8333,-0.5 130.167,-0.5 195.5,-0.5C 195.5,62.1667 195.5,124.833 195.5,187.5C 130.167,187.5 64.8333,187.5 -0.5,187.5C -0.5,124.833 -0.5,62.1667 -0.5,-0.5 Z"/></g>
<g><path style="opacity:1" fill="#383838" d="M 90.5,23.5 C 93.1459,22.8356 95.9792,22.5022 99,22.5C 103.133,22.2857 106.966,22.9524 110.5,24.5C 109.167,24.5 107.833,24.5 106.5,24.5C 101.36,23.5119 96.0262,23.1786 90.5,23.5 Z"/></g>
<g><path style="opacity:1" fill="#8e8e8e" d="M 90.5,23.5 C 96.0262,23.1786 101.36,23.5119 106.5,24.5C 101.105,24.2665 95.772,24.5998 90.5,25.5C 87.1667,25.5 83.8333,25.5 80.5,25.5C 83.6838,24.6768 87.0172,24.0101 90.5,23.5 Z"/></g>
<g><path style="opacity:1" fill="#f6f6f6" d="M 106.5,24.5 C 111.903,26.4361 117.569,27.9361 123.5,29C 128.321,31.4452 133.321,33.6118 138.5,35.5C 139.5,35.8333 140.167,36.5 140.5,37.5C 141.634,40.0338 143.634,41.3671 146.5,41.5C 146.5,43.5 147.5,44.5 149.5,44.5C 149.5,45.1667 149.833,45.5 150.5,45.5C 153.927,49.5841 156.927,53.9175 159.5,58.5C 160.728,59.3065 161.728,60.3065 162.5,61.5C 162.343,62.8734 162.51,64.2068 163,65.5C 163.739,67.8888 164.905,69.8888 166.5,71.5C 167.167,73.1667 167.833,74.8333 168.5,76.5C 168.286,83.1973 168.619,89.864 169.5,96.5C 168.954,104.331 167.954,111.998 166.5,119.5C 165.89,120.391 165.557,121.391 165.5,122.5C 163.182,124.185 162.182,126.519 162.5,129.5C 161.508,131.456 160.508,133.456 159.5,135.5C 158.094,135.973 157.427,136.973 157.5,138.5C 157.5,139.167 157.167,139.5 156.5,139.5C 152.5,142.833 148.833,146.5 145.5,150.5C 141.921,151.778 138.921,153.778 136.5,156.5C 135.5,157.167 134.5,157.833 133.5,158.5C 130.519,158.182 128.185,159.182 126.5,161.5C 125.391,161.557 124.391,161.89 123.5,162.5C 115.998,163.954 108.331,164.954 100.5,165.5C 93.864,164.619 87.1973,164.286 80.5,164.5C 78.8333,163.833 77.1667,163.167 75.5,162.5C 73.8888,160.905 71.8888,159.739 69.5,159C 68.2068,158.51 66.8734,158.343 65.5,158.5C 64.3065,157.728 63.3065,156.728 62.5,155.5C 61.1007,154.11 59.4341,153.11 57.5,152.5C 56.3951,151.4 55.0618,150.733 53.5,150.5C 53.1583,149.662 52.4916,149.328 51.5,149.5C 51.6716,148.508 51.3382,147.842 50.5,147.5C 50.5,145.5 49.5,144.5 47.5,144.5C 47.5,143.833 47.1667,143.5 46.5,143.5C 46.5,141.5 45.5,140.5 43.5,140.5C 43.4191,137.487 42.0858,135.487 39.5,134.5C 36.1727,127.06 33.1727,119.726 30.5,112.5C 30.1667,112.5 29.8333,112.5 29.5,112.5C 29.8128,108.958 29.4794,105.625 28.5,102.5C 28.4542,95.8092 28.7875,89.1426 29.5,82.5C 31.5808,75.7987 33.9141,69.1321 36.5,62.5C 40.6961,54.9655 46.0295,48.2988 52.5,42.5C 56.3568,41.3146 59.3568,38.9813 61.5,35.5C 66.0806,33.8701 70.4139,31.8701 74.5,29.5C 80.0492,28.5294 85.3825,27.1961 90.5,25.5C 95.772,24.5998 101.105,24.2665 106.5,24.5 Z"/></g>
<g><path style="opacity:1" fill="#b2b2b2" d="M 106.5,24.5 C 107.833,24.5 109.167,24.5 110.5,24.5C 112.948,25.4731 115.615,25.8064 118.5,25.5C 119.635,27.2132 121.302,27.8799 123.5,27.5C 125.282,28.7196 127.282,29.3862 129.5,29.5C 131.033,31.2451 133.033,32.2451 135.5,32.5C 136.29,33.4013 137.29,34.0679 138.5,34.5C 138.5,34.8333 138.5,35.1667 138.5,35.5C 133.321,33.6118 128.321,31.4452 123.5,29C 117.569,27.9361 111.903,26.4361 106.5,24.5 Z"/></g>
<g><path style="opacity:1" fill="#565656" d="M 80.5,25.5 C 79.3646,27.2132 77.698,27.8799 75.5,27.5C 76.9303,26.4625 78.597,25.7959 80.5,25.5 Z"/></g>
<g><path style="opacity:1" fill="#4e4e4e" d="M 118.5,25.5 C 120.403,25.7959 122.07,26.4625 123.5,27.5C 121.302,27.8799 119.635,27.2132 118.5,25.5 Z"/></g>
<g><path style="opacity:1" fill="#cecece" d="M 80.5,25.5 C 83.8333,25.5 87.1667,25.5 90.5,25.5C 85.3825,27.1961 80.0492,28.5294 74.5,29.5C 74.5,28.8333 74.5,28.1667 74.5,27.5C 74.8333,27.5 75.1667,27.5 75.5,27.5C 77.698,27.8799 79.3646,27.2132 80.5,25.5 Z"/></g>
<g><path style="opacity:1" fill="#5b5b5b" d="M 74.5,27.5 C 74.5,28.1667 74.5,28.8333 74.5,29.5C 69.956,30.571 65.6227,32.2377 61.5,34.5C 65.1838,31.2479 69.5171,28.9145 74.5,27.5 Z"/></g>
<g><path style="opacity:1" fill="#2d2d2d" d="M 129.5,29.5 C 131.967,29.7549 133.967,30.7549 135.5,32.5C 133.033,32.2451 131.033,31.2451 129.5,29.5 Z"/></g>
<g><path style="opacity:1" fill="#d2d2d2" d="M 74.5,29.5 C 70.4139,31.8701 66.0806,33.8701 61.5,35.5C 61.5,35.1667 61.5,34.8333 61.5,34.5C 65.6227,32.2377 69.956,30.571 74.5,29.5 Z"/></g>
<g><path style="opacity:1" fill="#a5a5a5" d="M 107.5,32.5 C 107.5,32.8333 107.5,33.1667 107.5,33.5C 100.833,33.5 94.1667,33.5 87.5,33.5C 85.4352,33.5172 83.4352,33.8505 81.5,34.5C 84.008,32.7629 87.008,31.9296 90.5,32C 96.3487,31.1816 102.015,31.3483 107.5,32.5 Z"/></g>
<g><path style="opacity:1" fill="#c6c6c6" d="M 107.5,33.5 C 107.5,33.1667 107.5,32.8333 107.5,32.5C 110.187,32.3359 112.854,32.5026 115.5,33C 116.056,33.3826 116.389,33.8826 116.5,34.5C 114.565,33.8505 112.565,33.5172 110.5,33.5C 109.5,33.5 108.5,33.5 107.5,33.5 Z"/></g>
<g><path style="opacity:1" fill="#464646" d="M 61.5,34.5 C 61.5,34.8333 61.5,35.1667 61.5,35.5C 60.391,35.5569 59.391,35.8902 58.5,36.5C 58.8212,34.9519 59.8212,34.2852 61.5,34.5 Z"/></g>
<g><path style="opacity:1" fill="#c5c5c5" d="M 80.5,34.5 C 80.5,34.8333 80.5,35.1667 80.5,35.5C 78.5,36.1667 76.5,36.8333 74.5,37.5C 73.391,37.5569 72.391,37.8902 71.5,38.5C 73.7768,35.8672 76.7768,34.5338 80.5,34.5 Z"/></g>
<g><path style="opacity:1" fill="#777777" d="M 87.5,33.5 C 85.4855,34.9238 83.1522,35.5905 80.5,35.5C 80.5,35.1667 80.5,34.8333 80.5,34.5C 80.8333,34.5 81.1667,34.5 81.5,34.5C 83.4352,33.8505 85.4352,33.5172 87.5,33.5 Z"/></g>
<g><path style="opacity:1" fill="#030303" d="M 87.5,33.5 C 94.1667,33.5 100.833,33.5 107.5,33.5C 108.5,33.5 109.5,33.5 110.5,33.5C 112.102,35.0739 114.102,35.7406 116.5,35.5C 119.426,36.4608 122.426,37.1274 125.5,37.5C 125.5,38.8333 126.167,39.5 127.5,39.5C 128.833,40.1667 130.167,40.8333 131.5,41.5C 131.973,42.9063 132.973,43.573 134.5,43.5C 134.973,44.9063 135.973,45.573 137.5,45.5C 137.973,46.9063 138.973,47.573 140.5,47.5C 141.167,47.5 141.5,47.8333 141.5,48.5C 142.5,49.8333 143.5,51.1667 144.5,52.5C 144.762,55.6987 146.428,57.6987 149.5,58.5C 149.833,59.5 150.5,60.1667 151.5,60.5C 154.932,64.6963 157.265,69.3629 158.5,74.5C 158.528,77.9164 159.528,80.9164 161.5,83.5C 161.5,84.1667 161.5,84.8333 161.5,85.5C 161.5,91.5 161.5,97.5 161.5,103.5C 161.5,104.5 161.5,105.5 161.5,106.5C 160.232,108.905 159.565,111.572 159.5,114.5C 159.5,114.833 159.5,115.167 159.5,115.5C 157.926,117.102 157.259,119.102 157.5,121.5C 155.82,122.782 154.487,124.449 153.5,126.5C 152.85,126.804 152.183,127.137 151.5,127.5C 149.408,125.395 147.075,123.728 144.5,122.5C 143.833,122.167 143.167,121.833 142.5,121.5C 141.272,118.27 138.939,116.604 135.5,116.5C 134.167,116.167 132.833,115.833 131.5,115.5C 131.5,114.167 130.833,113.5 129.5,113.5C 129.167,113.5 128.833,113.5 128.5,113.5C 128.027,112.094 127.027,111.427 125.5,111.5C 124.833,111.5 124.167,111.5 123.5,111.5C 122.486,110.326 121.153,109.66 119.5,109.5C 117.485,108.076 115.152,107.41 112.5,107.5C 104.344,106.343 96.0104,106.177 87.5,107C 85.5087,107.374 83.842,108.207 82.5,109.5C 80.4352,109.517 78.4352,109.85 76.5,110.5C 75.1266,110.343 73.7932,110.51 72.5,111C 70.404,111.737 68.7373,112.903 67.5,114.5C 60.7304,117.256 54.7304,121.256 49.5,126.5C 46.9641,125.963 44.9641,124.63 43.5,122.5C 43.1583,121.662 42.4916,121.328 41.5,121.5C 41.1274,118.426 40.4608,115.426 39.5,112.5C 39.7406,110.102 39.0739,108.102 37.5,106.5C 37.5,105.5 37.5,104.5 37.5,103.5C 37.5,97.1667 37.5,90.8333 37.5,84.5C 37.5,84.1667 37.5,83.8333 37.5,83.5C 39.0739,81.8984 39.7406,79.8984 39.5,77.5C 39.5,77.1667 39.5,76.8333 39.5,76.5C 40.6737,75.4863 41.3404,74.153 41.5,72.5C 41.5,71.8333 41.5,71.1667 41.5,70.5C 43.1042,69.713 43.7709,68.3797 43.5,66.5C 45.6879,65.5557 47.0212,63.889 47.5,61.5C 51.8333,53.8333 57.8333,47.8333 65.5,43.5C 67.889,43.0212 69.5557,41.6879 70.5,39.5C 72.3797,39.7709 73.713,39.1042 74.5,37.5C 76.5,36.8333 78.5,36.1667 80.5,35.5C 83.1522,35.5905 85.4855,34.9238 87.5,33.5 Z"/></g>
<g><path style="opacity:1" fill="#646464" d="M 110.5,33.5 C 112.565,33.5172 114.565,33.8505 116.5,34.5C 116.5,34.8333 116.5,35.1667 116.5,35.5C 114.102,35.7406 112.102,35.0739 110.5,33.5 Z"/></g>
<g><path style="opacity:1" fill="#afafaf" d="M 116.5,35.5 C 116.5,35.1667 116.5,34.8333 116.5,34.5C 119.916,34.5275 122.916,35.5275 125.5,37.5C 122.426,37.1274 119.426,36.4608 116.5,35.5 Z"/></g>
<g><path style="opacity:1" fill="#3f3f3f" d="M 138.5,35.5 C 138.5,35.1667 138.5,34.8333 138.5,34.5C 140.404,34.7376 141.738,35.7376 142.5,37.5C 141.833,37.5 141.167,37.5 140.5,37.5C 140.167,36.5 139.5,35.8333 138.5,35.5 Z"/></g>
<g><path style="opacity:1" fill="#777777" d="M 58.5,36.5 C 57.7377,38.2624 56.4044,39.2624 54.5,39.5C 55.2623,37.7376 56.5956,36.7376 58.5,36.5 Z"/></g>
<g><path style="opacity:1" fill="#d4d4d4" d="M 61.5,35.5 C 59.3568,38.9813 56.3568,41.3146 52.5,42.5C 52.8333,41.8333 53.1667,41.1667 53.5,40.5C 53.5,39.8333 53.8333,39.5 54.5,39.5C 56.4044,39.2624 57.7377,38.2624 58.5,36.5C 59.391,35.8902 60.391,35.5569 61.5,35.5 Z"/></g>
<g><path style="opacity:1" fill="#838383" d="M 74.5,37.5 C 73.713,39.1042 72.3797,39.7709 70.5,39.5C 70.5,38.8333 70.8333,38.5 71.5,38.5C 72.391,37.8902 73.391,37.5569 74.5,37.5 Z"/></g>
<g><path style="opacity:1" fill="#878787" d="M 125.5,37.5 C 126.492,37.3284 127.158,37.6618 127.5,38.5C 127.5,38.8333 127.5,39.1667 127.5,39.5C 126.167,39.5 125.5,38.8333 125.5,37.5 Z"/></g>
<g><path style="opacity:1" fill="#b2b2b2" d="M 140.5,37.5 C 141.167,37.5 141.833,37.5 142.5,37.5C 144.167,38.5 145.5,39.8333 146.5,41.5C 143.634,41.3671 141.634,40.0338 140.5,37.5 Z"/></g>
<g><path style="opacity:1" fill="#bababa" d="M 127.5,39.5 C 127.5,39.1667 127.5,38.8333 127.5,38.5C 130.077,38.4551 132.077,39.4551 133.5,41.5C 132.833,41.5 132.167,41.5 131.5,41.5C 130.167,40.8333 128.833,40.1667 127.5,39.5 Z"/></g>
<g><path style="opacity:1" fill="#494949" d="M 70.5,39.5 C 69.5557,41.6879 67.889,43.0212 65.5,43.5C 65.5,43.1667 65.5,42.8333 65.5,42.5C 66.8993,41.1103 68.5659,40.1103 70.5,39.5 Z"/></g>
<g><path style="opacity:1" fill="#6c6c6c" d="M 131.5,41.5 C 132.167,41.5 132.833,41.5 133.5,41.5C 133.833,42.1667 134.167,42.8333 134.5,43.5C 132.973,43.573 131.973,42.9063 131.5,41.5 Z"/></g>
<g><path style="opacity:1" fill="#adadad" d="M 146.5,41.5 C 147.167,41.8333 147.833,42.1667 148.5,42.5C 148.833,43.1667 149.167,43.8333 149.5,44.5C 147.5,44.5 146.5,43.5 146.5,41.5 Z"/></g>
<g><path style="opacity:1" fill="#717171" d="M 134.5,43.5 C 136.027,43.427 137.027,44.0937 137.5,45.5C 135.973,45.573 134.973,44.9063 134.5,43.5 Z"/></g>
<g><path style="opacity:1" fill="#2b2b2b" d="M 148.5,42.5 C 151.179,42.5246 152.512,43.858 152.5,46.5C 151.833,46.1667 151.167,45.8333 150.5,45.5C 149.833,45.5 149.5,45.1667 149.5,44.5C 149.167,43.8333 148.833,43.1667 148.5,42.5 Z"/></g>
<g><path style="opacity:1" fill="#808080" d="M 137.5,45.5 C 139.027,45.427 140.027,46.0937 140.5,47.5C 138.973,47.573 137.973,46.9063 137.5,45.5 Z"/></g>
<g><path style="opacity:1" fill="#a4a4a4" d="M 150.5,45.5 C 151.167,45.8333 151.833,46.1667 152.5,46.5C 155.637,49.2985 157.971,52.6319 159.5,56.5C 159.5,57.1667 159.5,57.8333 159.5,58.5C 156.927,53.9175 153.927,49.5841 150.5,45.5 Z"/></g>
<g><path style="opacity:1" fill="#a2a2a2" d="M 141.5,48.5 C 144.167,49.1667 145.833,50.8333 146.5,53.5C 145.833,53.1667 145.167,52.8333 144.5,52.5C 143.5,51.1667 142.5,49.8333 141.5,48.5 Z"/></g>
<g><path style="opacity:1" fill="#bcbcbc" d="M 103.5,49.5 C 104.833,49.5 106.167,49.5 107.5,49.5C 107.833,50.1667 108.167,50.8333 108.5,51.5C 100.629,49.4577 93.2956,50.4577 86.5,54.5C 87.5609,52.4676 89.2276,51.1342 91.5,50.5C 95.4454,49.5091 99.4454,49.1758 103.5,49.5 Z"/></g>
<g><path style="opacity:1" fill="#f7f7f7" d="M 108.5,51.5 C 108.833,51.5 109.167,51.5 109.5,51.5C 110.712,54.1068 112.712,55.7735 115.5,56.5C 120.512,65.8575 121.846,75.8575 119.5,86.5C 118.559,88.0495 117.893,89.7162 117.5,91.5C 114.246,93.1374 111.246,95.1374 108.5,97.5C 103.886,98.5502 99.2196,98.7168 94.5,98C 91.0367,96.768 87.7034,95.268 84.5,93.5C 83.7735,90.7122 82.1068,88.7122 79.5,87.5C 79.5,87.1667 79.5,86.8333 79.5,86.5C 79.1667,85.1667 78.8333,83.8333 78.5,82.5C 78.2487,76.1082 78.582,69.7748 79.5,63.5C 80.6547,59.6676 82.988,56.6676 86.5,54.5C 93.2956,50.4577 100.629,49.4577 108.5,51.5 Z"/></g>
<g><path style="opacity:1" fill="#353535" d="M 107.5,49.5 C 110.513,49.5809 112.513,50.9142 113.5,53.5C 112.167,52.8333 110.833,52.1667 109.5,51.5C 109.167,51.5 108.833,51.5 108.5,51.5C 108.167,50.8333 107.833,50.1667 107.5,49.5 Z"/></g>
<g><path style="opacity:1" fill="#8d8d8d" d="M 65.5,42.5 C 65.5,42.8333 65.5,43.1667 65.5,43.5C 57.8333,47.8333 51.8333,53.8333 47.5,61.5C 47.1667,61.5 46.8333,61.5 46.5,61.5C 46.3505,60.448 46.5172,59.448 47,58.5C 51.5,52.6667 56.6667,47.5 62.5,43C 63.448,42.5172 64.448,42.3505 65.5,42.5 Z"/></g>
<g><path style="opacity:1" fill="#b9b9b9" d="M 109.5,51.5 C 110.833,52.1667 112.167,52.8333 113.5,53.5C 114.167,54.5 114.833,55.5 115.5,56.5C 112.712,55.7735 110.712,54.1068 109.5,51.5 Z"/></g>
<g><path style="opacity:1" fill="#2c2c2c" d="M 144.5,52.5 C 145.167,52.8333 145.833,53.1667 146.5,53.5C 147.488,54.795 148.488,56.1283 149.5,57.5C 149.5,57.8333 149.5,58.1667 149.5,58.5C 146.428,57.6987 144.762,55.6987 144.5,52.5 Z"/></g>
<g><path style="opacity:1" fill="#323232" d="M 113.5,53.5 C 118.083,54.7498 120.416,57.7498 120.5,62.5C 119.787,59.7589 118.12,57.7589 115.5,56.5C 114.833,55.5 114.167,54.5 113.5,53.5 Z"/></g>
<g><path style="opacity:1" fill="#656565" d="M 103.5,49.5 C 99.4454,49.1758 95.4454,49.5091 91.5,50.5C 89.2276,51.1342 87.5609,52.4676 86.5,54.5C 82.988,56.6676 80.6547,59.6676 79.5,63.5C 79.1667,63.5 78.8333,63.5 78.5,63.5C 78.3433,62.1266 78.51,60.7932 79,59.5C 82.5338,55.6311 86.3672,52.1311 90.5,49C 95.0204,48.1864 99.3537,48.353 103.5,49.5 Z"/></g>
<g><path style="opacity:1" fill="#888888" d="M 104.5,59.5 C 100.818,59.3347 97.1516,59.5014 93.5,60C 92.4293,60.8518 91.4293,61.6851 90.5,62.5C 88.2621,63.8527 86.9287,65.8527 86.5,68.5C 86.1667,68.5 85.8333,68.5 85.5,68.5C 88.6621,58.4879 94.9954,55.4879 104.5,59.5 Z"/></g>
<g><path style="opacity:1" fill="#656565" d="M 149.5,57.5 C 150.167,57.8333 150.833,58.1667 151.5,58.5C 151.5,59.1667 151.5,59.8333 151.5,60.5C 150.5,60.1667 149.833,59.5 149.5,58.5C 149.5,58.1667 149.5,57.8333 149.5,57.5 Z"/></g>
<g><path style="opacity:1" fill="#7a7a7a" d="M 105.5,59.5 C 107.027,59.427 108.027,60.0937 108.5,61.5C 106.973,61.573 105.973,60.9063 105.5,59.5 Z"/></g>
<g><path style="opacity:1" fill="#666666" d="M 159.5,56.5 C 161.543,57.5794 162.876,59.246 163.5,61.5C 163.167,61.5 162.833,61.5 162.5,61.5C 161.728,60.3065 160.728,59.3065 159.5,58.5C 159.5,57.8333 159.5,57.1667 159.5,56.5 Z"/></g>
<g><path style="opacity:1" fill="#030303" d="M 104.5,59.5 C 104.833,59.5 105.167,59.5 105.5,59.5C 105.973,60.9063 106.973,61.573 108.5,61.5C 109.167,61.5 109.5,61.8333 109.5,62.5C 109.5,62.8333 109.5,63.1667 109.5,63.5C 110.969,68.7162 111.635,74.0495 111.5,79.5C 111.103,83.5647 109.103,86.5647 105.5,88.5C 100.77,88.7166 96.1031,88.3833 91.5,87.5C 91.1436,85.8102 90.1436,84.8102 88.5,84.5C 87.962,82.8828 87.6287,81.2161 87.5,79.5C 87.1236,73.5075 88.1236,67.8408 90.5,62.5C 91.4293,61.6851 92.4293,60.8518 93.5,60C 97.1516,59.5014 100.818,59.3347 104.5,59.5 Z"/></g>
<g><path style="opacity:1" fill="#636363" d="M 53.5,40.5 C 53.1667,41.1667 52.8333,41.8333 52.5,42.5C 46.0295,48.2988 40.6961,54.9655 36.5,62.5C 35.5894,64.751 34.256,66.751 32.5,68.5C 36.4326,56.8961 43.4326,47.5628 53.5,40.5 Z"/></g>
<g><path style="opacity:1" fill="#c1c1c1" d="M 151.5,58.5 C 152.15,58.8039 152.817,59.1373 153.5,59.5C 156.982,65.1186 159.316,71.1186 160.5,77.5C 159.833,76.5 159.167,75.5 158.5,74.5C 157.265,69.3629 154.932,64.6963 151.5,60.5C 151.5,59.8333 151.5,59.1667 151.5,58.5 Z"/></g>
<g><path style="opacity:1" fill="#2d2d2d" d="M 163.5,61.5 C 165.856,63.5573 166.856,66.224 166.5,69.5C 165.506,66.8763 164.506,64.2097 163.5,61.5 Z"/></g>
<g><path style="opacity:1" fill="#4a4a4a" d="M 46.5,61.5 C 46.8333,61.5 47.1667,61.5 47.5,61.5C 47.0212,63.889 45.6879,65.5557 43.5,66.5C 44.1103,64.5659 45.1103,62.8993 46.5,61.5 Z"/></g>
<g><path style="opacity:1" fill="#bfbfbf" d="M 36.5,62.5 C 33.9141,69.1321 31.5808,75.7987 29.5,82.5C 29.5,80.5 29.5,78.5 29.5,76.5C 30.1174,76.3893 30.6174,76.056 31,75.5C 31.4396,73.1341 31.9396,70.8008 32.5,68.5C 34.256,66.751 35.5894,64.751 36.5,62.5 Z"/></g>
<g><path style="opacity:1" fill="#b4b4b4" d="M 162.5,61.5 C 162.833,61.5 163.167,61.5 163.5,61.5C 164.506,64.2097 165.506,66.8763 166.5,69.5C 166.5,70.1667 166.5,70.8333 166.5,71.5C 164.905,69.8888 163.739,67.8888 163,65.5C 162.51,64.2068 162.343,62.8734 162.5,61.5 Z"/></g>
<g><path style="opacity:1" fill="#797979" d="M 43.5,66.5 C 43.7709,68.3797 43.1042,69.713 41.5,70.5C 41.6596,68.847 42.3263,67.5137 43.5,66.5 Z"/></g>
<g><path style="opacity:1" fill="#686868" d="M 77.5,66.5 C 77.1786,72.0262 77.5119,77.3595 78.5,82.5C 78.8333,83.8333 79.1667,85.1667 79.5,86.5C 78.8333,86.1667 78.1667,85.8333 77.5,85.5C 76.1927,79.0676 76.1927,72.7343 77.5,66.5 Z"/></g>
<g><path style="opacity:1" fill="#cbcbcb" d="M 109.5,63.5 C 109.5,63.1667 109.5,62.8333 109.5,62.5C 110.496,62.4142 111.329,62.7476 112,63.5C 113.99,67.1874 114.823,71.1874 114.5,75.5C 114.478,78.5902 113.812,81.2568 112.5,83.5C 113.751,78.3691 113.751,73.3691 112.5,68.5C 112.047,66.4348 111.047,64.7682 109.5,63.5 Z"/></g>
<g><path style="opacity:1" fill="#5d5d5d" d="M 120.5,62.5 C 121.117,62.6107 121.617,62.944 122,63.5C 122.819,69.6812 122.653,75.6812 121.5,81.5C 121.751,75.1082 121.418,68.7748 120.5,62.5 Z"/></g>
<g><path style="opacity:1" fill="#bfbfbf" d="M 115.5,56.5 C 118.12,57.7589 119.787,59.7589 120.5,62.5C 121.418,68.7748 121.751,75.1082 121.5,81.5C 121.5,82.8333 121.5,84.1667 121.5,85.5C 120.833,85.8333 120.167,86.1667 119.5,86.5C 121.846,75.8575 120.512,65.8575 115.5,56.5 Z"/></g>
<g><path style="opacity:1" fill="#515151" d="M 166.5,69.5 C 168.241,71.3949 169.241,73.7282 169.5,76.5C 169.167,76.5 168.833,76.5 168.5,76.5C 167.833,74.8333 167.167,73.1667 166.5,71.5C 166.5,70.8333 166.5,70.1667 166.5,69.5 Z"/></g>
<g><path style="opacity:1" fill="#757575" d="M 85.5,68.5 C 85.8333,68.5 86.1667,68.5 86.5,68.5C 86.185,72.3714 86.5184,76.0381 87.5,79.5C 87.6287,81.2161 87.962,82.8828 88.5,84.5C 87.2101,83.9423 86.3768,82.9423 86,81.5C 85.501,77.1794 85.3343,72.8461 85.5,68.5 Z"/></g>
<g><path style="opacity:1" fill="#303030" d="M 90.5,62.5 C 88.1236,67.8408 87.1236,73.5075 87.5,79.5C 86.5184,76.0381 86.185,72.3714 86.5,68.5C 86.9287,65.8527 88.2621,63.8527 90.5,62.5 Z"/></g>
<g><path style="opacity:1" fill="#323232" d="M 109.5,63.5 C 111.047,64.7682 112.047,66.4348 112.5,68.5C 112.815,72.3714 112.482,76.0381 111.5,79.5C 111.635,74.0495 110.969,68.7162 109.5,63.5 Z"/></g>
<g><path style="opacity:1" fill="#747474" d="M 112.5,68.5 C 113.751,73.3691 113.751,78.3691 112.5,83.5C 110.786,86.2128 108.453,88.2128 105.5,89.5C 105.5,89.1667 105.5,88.8333 105.5,88.5C 109.103,86.5647 111.103,83.5647 111.5,79.5C 112.482,76.0381 112.815,72.3714 112.5,68.5 Z"/></g>
<g><path style="opacity:1" fill="#6b6b6b" d="M 41.5,72.5 C 41.3404,74.153 40.6737,75.4863 39.5,76.5C 39.1568,74.5168 39.8235,73.1834 41.5,72.5 Z"/></g>
<g><path style="opacity:1" fill="#454545" d="M 32.5,68.5 C 31.9396,70.8008 31.4396,73.1341 31,75.5C 30.6174,76.056 30.1174,76.3893 29.5,76.5C 30.0604,74.1992 30.5604,71.8659 31,69.5C 31.3826,68.944 31.8826,68.6107 32.5,68.5 Z"/></g>
<g><path style="opacity:1" fill="#c6c6c6" d="M 78.5,63.5 C 78.8333,63.5 79.1667,63.5 79.5,63.5C 78.582,69.7748 78.2487,76.1082 78.5,82.5C 77.5119,77.3595 77.1786,72.0262 77.5,66.5C 77.2627,65.209 77.596,64.209 78.5,63.5 Z"/></g>
<g><path style="opacity:1" fill="#5b5b5b" d="M 158.5,74.5 C 159.167,75.5 159.833,76.5 160.5,77.5C 161.15,79.4352 161.483,81.4352 161.5,83.5C 159.528,80.9164 158.528,77.9164 158.5,74.5 Z"/></g>
<g><path style="opacity:1" fill="#6a6a6a" d="M 39.5,77.5 C 39.7406,79.8984 39.0739,81.8984 37.5,83.5C 37.2594,81.1016 37.9261,79.1016 39.5,77.5 Z"/></g>
<g><path style="opacity:1" fill="#454545" d="M 88.5,84.5 C 90.1436,84.8102 91.1436,85.8102 91.5,87.5C 91.1667,87.5 90.8333,87.5 90.5,87.5C 89.5987,86.7095 88.9321,85.7095 88.5,84.5 Z"/></g>
<g><path style="opacity:1" fill="#b9b9b9" d="M 79.5,87.5 C 82.1068,88.7122 83.7735,90.7122 84.5,93.5C 83.5,92.8333 82.5,92.1667 81.5,91.5C 80.8333,90.1667 80.1667,88.8333 79.5,87.5 Z"/></g>
<g><path style="opacity:1" fill="#2f2f2f" d="M 91.5,87.5 C 96.1031,88.3833 100.77,88.7166 105.5,88.5C 105.5,88.8333 105.5,89.1667 105.5,89.5C 104.609,90.1098 103.609,90.4431 102.5,90.5C 100.143,90.6633 97.8098,90.4966 95.5,90C 93.6803,89.7996 92.347,88.9663 91.5,87.5 Z"/></g>
<g><path style="opacity:1" fill="#353535" d="M 77.5,85.5 C 78.1667,85.8333 78.8333,86.1667 79.5,86.5C 79.5,86.8333 79.5,87.1667 79.5,87.5C 80.1667,88.8333 80.8333,90.1667 81.5,91.5C 78.9142,90.5134 77.5809,88.5134 77.5,85.5 Z"/></g>
<g><path style="opacity:1" fill="#9f9f9f" d="M 90.5,87.5 C 90.8333,87.5 91.1667,87.5 91.5,87.5C 92.347,88.9663 93.6803,89.7996 95.5,90C 97.8098,90.4966 100.143,90.6633 102.5,90.5C 98.9258,91.7738 95.2591,91.6071 91.5,90C 90.7476,89.3292 90.4142,88.4959 90.5,87.5 Z"/></g>
<g><path style="opacity:1" fill="#585858" d="M 121.5,85.5 C 120.66,87.8525 119.326,89.8525 117.5,91.5C 117.893,89.7162 118.559,88.0495 119.5,86.5C 120.167,86.1667 120.833,85.8333 121.5,85.5 Z"/></g>
<g><path style="opacity:1" fill="#c8c8c8" d="M 168.5,76.5 C 168.833,76.5 169.167,76.5 169.5,76.5C 169.381,80.347 170.047,84.0137 171.5,87.5C 171.653,93.8692 171.32,100.203 170.5,106.5C 169.532,108.607 169.198,110.941 169.5,113.5C 167.787,114.635 167.12,116.302 167.5,118.5C 167.5,118.833 167.5,119.167 167.5,119.5C 167.167,119.5 166.833,119.5 166.5,119.5C 167.954,111.998 168.954,104.331 169.5,96.5C 168.619,89.864 168.286,83.1973 168.5,76.5 Z"/></g>
<g><path style="opacity:1" fill="#434343" d="M 27.5,87.5 C 27.1795,92.6946 27.5128,97.6946 28.5,102.5C 29.4794,105.625 29.8128,108.958 29.5,112.5C 29.5,112.833 29.5,113.167 29.5,113.5C 26.5934,104.99 25.9267,96.3237 27.5,87.5 Z"/></g>
<g><path style="opacity:1" fill="#888888" d="M 37.5,84.5 C 37.5,90.8333 37.5,97.1667 37.5,103.5C 37.1667,103.5 36.8333,103.5 36.5,103.5C 35.3483,98.0154 35.1816,92.3487 36,86.5C 36.2784,85.5842 36.7784,84.9175 37.5,84.5 Z"/></g>
<g><path style="opacity:1" fill="#9e9e9e" d="M 161.5,85.5 C 162.117,85.6107 162.617,85.944 163,86.5C 163.167,89.3333 163.333,92.1667 163.5,95C 163.481,98.2515 162.814,101.085 161.5,103.5C 161.5,97.5 161.5,91.5 161.5,85.5 Z"/></g>
<g><path style="opacity:1" fill="#393939" d="M 171.5,87.5 C 172.164,89.9779 172.497,92.6445 172.5,95.5C 172.706,99.4687 172.039,103.135 170.5,106.5C 171.32,100.203 171.653,93.8692 171.5,87.5 Z"/></g>
<g><path style="opacity:1" fill="#8e8e8e" d="M 29.5,76.5 C 29.5,78.5 29.5,80.5 29.5,82.5C 28.7875,89.1426 28.4542,95.8092 28.5,102.5C 27.5128,97.6946 27.1795,92.6946 27.5,87.5C 27.9309,83.6634 28.5975,79.9968 29.5,76.5 Z"/></g>
<g><path style="opacity:1" fill="#a3a3a3" d="M 117.5,91.5 C 116.5,93.1667 115.167,94.5 113.5,95.5C 111.989,96.5025 110.322,97.1692 108.5,97.5C 111.246,95.1374 114.246,93.1374 117.5,91.5 Z"/></g>
<g><path style="opacity:1" fill="#323232" d="M 81.5,91.5 C 82.5,92.1667 83.5,92.8333 84.5,93.5C 85.7589,96.12 87.7589,97.7867 90.5,98.5C 85.7498,98.4164 82.7498,96.083 81.5,91.5 Z"/></g>
<g><path style="opacity:1" fill="#bcbcbc" d="M 84.5,93.5 C 87.7034,95.268 91.0367,96.768 94.5,98C 99.2196,98.7168 103.886,98.5502 108.5,97.5C 108.167,98.1667 107.833,98.8333 107.5,99.5C 107.167,99.5 106.833,99.5 106.5,99.5C 101.105,99.7335 95.772,99.4002 90.5,98.5C 87.7589,97.7867 85.7589,96.12 84.5,93.5 Z"/></g>
<g><path style="opacity:1" fill="#373737" d="M 113.5,95.5 C 112.366,98.0338 110.366,99.3671 107.5,99.5C 107.833,98.8333 108.167,98.1667 108.5,97.5C 110.322,97.1692 111.989,96.5025 113.5,95.5 Z"/></g>
<g><path style="opacity:1" fill="#525252" d="M 90.5,98.5 C 95.772,99.4002 101.105,99.7335 106.5,99.5C 101.684,100.65 96.6842,100.816 91.5,100C 90.944,99.6174 90.6107,99.1174 90.5,98.5 Z"/></g>
<g><path style="opacity:1" fill="#b0b0b0" d="M 108.5,107.5 C 109.5,108.167 110.5,108.833 111.5,109.5C 103.167,108.167 94.8333,108.167 86.5,109.5C 86.9175,108.778 87.5842,108.278 88.5,108C 95.1583,107.5 101.825,107.334 108.5,107.5 Z"/></g>
<g><path style="opacity:1" fill="#6b6b6b" d="M 108.5,107.5 C 109.833,107.5 111.167,107.5 112.5,107.5C 113.5,108.167 114.5,108.833 115.5,109.5C 114.167,109.5 112.833,109.5 111.5,109.5C 110.5,108.833 109.5,108.167 108.5,107.5 Z"/></g>
<g><path style="opacity:1" fill="#505050" d="M 112.5,107.5 C 111.167,107.5 109.833,107.5 108.5,107.5C 101.825,107.334 95.1583,107.5 88.5,108C 87.5842,108.278 86.9175,108.778 86.5,109.5C 85.1667,109.5 83.8333,109.5 82.5,109.5C 83.842,108.207 85.5087,107.374 87.5,107C 96.0104,106.177 104.344,106.343 112.5,107.5 Z"/></g>
<g><path style="opacity:1" fill="#2c2c2c" d="M 112.5,107.5 C 115.152,107.41 117.485,108.076 119.5,109.5C 118.833,109.5 118.167,109.5 117.5,109.5C 116.833,109.5 116.167,109.5 115.5,109.5C 114.5,108.833 113.5,108.167 112.5,107.5 Z"/></g>
<g><path style="opacity:1" fill="#656565" d="M 117.5,109.5 C 118.167,109.5 118.833,109.5 119.5,109.5C 121.153,109.66 122.486,110.326 123.5,111.5C 121.102,111.741 119.102,111.074 117.5,109.5 Z"/></g>
<g><path style="opacity:1" fill="#c6c6c6" d="M 36.5,103.5 C 36.8333,103.5 37.1667,103.5 37.5,103.5C 37.5,104.5 37.5,105.5 37.5,106.5C 37.5172,108.565 37.8505,110.565 38.5,112.5C 37.8826,112.389 37.3826,112.056 37,111.5C 36.5026,108.854 36.3359,106.187 36.5,103.5 Z"/></g>
<g><path style="opacity:1" fill="#404040" d="M 76.5,110.5 C 76.5,110.833 76.5,111.167 76.5,111.5C 73.59,112.647 70.59,113.647 67.5,114.5C 68.7373,112.903 70.404,111.737 72.5,111C 73.7932,110.51 75.1266,110.343 76.5,110.5 Z"/></g>
<g><path style="opacity:1" fill="#9b9b9b" d="M 82.5,109.5 C 82.5,109.833 82.5,110.167 82.5,110.5C 80.5648,111.15 78.5648,111.483 76.5,111.5C 76.5,111.167 76.5,110.833 76.5,110.5C 78.4352,109.85 80.4352,109.517 82.5,109.5 Z"/></g>
<g><path style="opacity:1" fill="#646464" d="M 37.5,106.5 C 39.0739,108.102 39.7406,110.102 39.5,112.5C 39.1667,112.5 38.8333,112.5 38.5,112.5C 37.8505,110.565 37.5172,108.565 37.5,106.5 Z"/></g>
<g><path style="opacity:1" fill="#535353" d="M 125.5,111.5 C 127.027,111.427 128.027,112.094 128.5,113.5C 126.973,113.573 125.973,112.906 125.5,111.5 Z"/></g>
<g><path style="opacity:1" fill="#cdcdcd" d="M 82.5,110.5 C 82.3893,111.117 82.056,111.617 81.5,112C 77.0128,113.696 72.3462,114.863 67.5,115.5C 67.5,115.167 67.5,114.833 67.5,114.5C 70.59,113.647 73.59,112.647 76.5,111.5C 78.5648,111.483 80.5648,111.15 82.5,110.5 Z"/></g>
<g><path style="opacity:1" fill="#cacaca" d="M 123.5,111.5 C 124.167,111.5 124.833,111.5 125.5,111.5C 125.973,112.906 126.973,113.573 128.5,113.5C 128.833,113.5 129.167,113.5 129.5,113.5C 130.833,113.5 131.5,114.167 131.5,115.5C 132.833,115.833 134.167,116.167 135.5,116.5C 136.833,117.833 138.167,119.167 139.5,120.5C 134.375,117.937 129.042,115.937 123.5,114.5C 123.5,113.5 123.5,112.5 123.5,111.5 Z"/></g>
<g><path style="opacity:1" fill="#8c8c8c" d="M 161.5,106.5 C 161.889,109.553 161.223,112.22 159.5,114.5C 159.565,111.572 160.232,108.905 161.5,106.5 Z"/></g>
<g><path style="opacity:1" fill="#8e8e8e" d="M 29.5,112.5 C 29.8333,112.5 30.1667,112.5 30.5,112.5C 31.1098,113.391 31.4431,114.391 31.5,115.5C 30.8333,115.167 30.1667,114.833 29.5,114.5C 29.5,114.167 29.5,113.833 29.5,113.5C 29.5,113.167 29.5,112.833 29.5,112.5 Z"/></g>
<g><path style="opacity:1" fill="#7f7f7f" d="M 129.5,113.5 C 130.833,113.5 131.5,114.167 131.5,115.5C 130.167,115.5 129.5,114.833 129.5,113.5 Z"/></g>
<g><path style="opacity:1" fill="#aeaeae" d="M 38.5,112.5 C 38.8333,112.5 39.1667,112.5 39.5,112.5C 40.4608,115.426 41.1274,118.426 41.5,121.5C 39.5275,118.916 38.5275,115.916 38.5,112.5 Z"/></g>
<g><path style="opacity:1" fill="#9d9d9d" d="M 108.5,117.5 C 101.5,117.5 94.5,117.5 87.5,117.5C 85.4352,117.517 83.4352,117.85 81.5,118.5C 82.6936,117.223 84.3603,116.556 86.5,116.5C 90.3266,116.09 94.16,115.757 98,115.5C 101.782,115.379 105.282,116.046 108.5,117.5 Z"/></g>
<g><path style="opacity:1" fill="#666666" d="M 169.5,113.5 C 169.204,115.403 168.537,117.07 167.5,118.5C 167.12,116.302 167.787,114.635 169.5,113.5 Z"/></g>
<g><path style="opacity:1" fill="#4f4f4f" d="M 29.5,114.5 C 30.1667,114.833 30.8333,115.167 31.5,115.5C 31.5,116.833 31.5,118.167 31.5,119.5C 30.4625,118.07 29.7959,116.403 29.5,114.5 Z"/></g>
<g><path style="opacity:1" fill="#2a2a2a" d="M 87.5,118.5 C 87.5,118.167 87.5,117.833 87.5,117.5C 94.5,117.5 101.5,117.5 108.5,117.5C 109.833,117.5 111.167,117.5 112.5,117.5C 114.102,119.074 116.102,119.741 118.5,119.5C 118.833,119.5 119.167,119.5 119.5,119.5C 119.5,119.833 119.5,120.167 119.5,120.5C 108.906,118.951 98.2398,118.284 87.5,118.5 Z"/></g>
<g><path style="opacity:1" fill="#929292" d="M 112.5,117.5 C 114.898,117.259 116.898,117.926 118.5,119.5C 116.102,119.741 114.102,119.074 112.5,117.5 Z"/></g>
<g><path style="opacity:1" fill="#c3c3c3" d="M 80.5,118.5 C 80.5,118.833 80.5,119.167 80.5,119.5C 78.5,120.167 76.5,120.833 74.5,121.5C 73.391,121.557 72.391,121.89 71.5,122.5C 73.7768,119.867 76.7768,118.534 80.5,118.5 Z"/></g>
<g><path style="opacity:1" fill="#747474" d="M 87.5,117.5 C 87.5,117.833 87.5,118.167 87.5,118.5C 85.1944,118.993 82.861,119.326 80.5,119.5C 80.5,119.167 80.5,118.833 80.5,118.5C 80.8333,118.5 81.1667,118.5 81.5,118.5C 83.4352,117.85 85.4352,117.517 87.5,117.5 Z"/></g>
<g><path style="opacity:1" fill="#030303" d="M 87.5,118.5 C 98.2398,118.284 108.906,118.951 119.5,120.5C 123.166,123 127.166,125 131.5,126.5C 132.391,127.11 133.391,127.443 134.5,127.5C 134.973,128.906 135.973,129.573 137.5,129.5C 138.911,131.914 140.911,133.581 143.5,134.5C 146.167,136.5 146.167,138.5 143.5,140.5C 138.214,143.788 133.214,147.454 128.5,151.5C 128.167,151.5 127.833,151.5 127.5,151.5C 125.597,151.796 123.93,152.463 122.5,153.5C 122.167,153.5 121.833,153.5 121.5,153.5C 118.873,154.105 116.207,154.605 113.5,155C 112.944,155.383 112.611,155.883 112.5,156.5C 111.508,156.328 110.842,156.662 110.5,157.5C 109.5,157.5 108.5,157.5 107.5,157.5C 101.5,157.5 95.5,157.5 89.5,157.5C 88.8333,157.5 88.1667,157.5 87.5,157.5C 84.9164,155.528 81.9164,154.528 78.5,154.5C 73.3629,153.265 68.6963,150.932 64.5,147.5C 63.4154,145.413 61.7488,144.08 59.5,143.5C 57.8564,141.519 56.1897,139.519 54.5,137.5C 55.1925,136.482 55.8592,135.482 56.5,134.5C 59.2085,131.791 62.2085,129.458 65.5,127.5C 67.889,127.021 69.5557,125.688 70.5,123.5C 72.3797,123.771 73.713,123.104 74.5,121.5C 76.5,120.833 78.5,120.167 80.5,119.5C 82.861,119.326 85.1944,118.993 87.5,118.5 Z"/></g>
<g><path style="opacity:1" fill="#3d3d3d" d="M 135.5,116.5 C 138.939,116.604 141.272,118.27 142.5,121.5C 141.391,121.443 140.391,121.11 139.5,120.5C 138.167,119.167 136.833,117.833 135.5,116.5 Z"/></g>
<g><path style="opacity:1" fill="#adadad" d="M 159.5,115.5 C 159.741,117.898 159.074,119.898 157.5,121.5C 157.259,119.102 157.926,117.102 159.5,115.5 Z"/></g>
<g><path style="opacity:1" fill="#a9a9a9" d="M 119.5,120.5 C 119.5,120.167 119.5,119.833 119.5,119.5C 121.898,119.259 123.898,119.926 125.5,121.5C 123.435,121.483 121.435,121.15 119.5,120.5 Z"/></g>
<g><path style="opacity:1" fill="#c1c1c1" d="M 139.5,120.5 C 140.391,121.11 141.391,121.443 142.5,121.5C 143.167,121.833 143.833,122.167 144.5,122.5C 144.5,122.833 144.5,123.167 144.5,123.5C 141.966,123.741 140.3,122.741 139.5,120.5 Z"/></g>
<g><path style="opacity:1" fill="#6f6f6f" d="M 166.5,119.5 C 166.833,119.5 167.167,119.5 167.5,119.5C 167.573,121.027 166.906,122.027 165.5,122.5C 165.557,121.391 165.89,120.391 166.5,119.5 Z"/></g>
<g><path style="opacity:1" fill="#878787" d="M 41.5,121.5 C 42.4916,121.328 43.1583,121.662 43.5,122.5C 43.5,122.833 43.5,123.167 43.5,123.5C 43.1667,123.5 42.8333,123.5 42.5,123.5C 41.6618,123.158 41.3284,122.492 41.5,121.5 Z"/></g>
<g><path style="opacity:1" fill="#7f7f7f" d="M 74.5,121.5 C 73.713,123.104 72.3797,123.771 70.5,123.5C 70.5,122.833 70.8333,122.5 71.5,122.5C 72.391,121.89 73.391,121.557 74.5,121.5 Z"/></g>
<g><path style="opacity:1" fill="#828282" d="M 125.5,121.5 C 126.492,121.328 127.158,121.662 127.5,122.5C 127.5,122.833 127.5,123.167 127.5,123.5C 126.167,123.5 125.5,122.833 125.5,121.5 Z"/></g>
<g><path style="opacity:1" fill="#4a4a4a" d="M 144.5,123.5 C 144.5,123.167 144.5,122.833 144.5,122.5C 147.075,123.728 149.408,125.395 151.5,127.5C 152.183,127.137 152.85,126.804 153.5,126.5C 153.5,126.833 153.5,127.167 153.5,127.5C 153.38,128.586 152.713,129.253 151.5,129.5C 149.172,127.507 146.839,125.507 144.5,123.5 Z"/></g>
<g><path style="opacity:1" fill="#272727" d="M 119.5,120.5 C 121.435,121.15 123.435,121.483 125.5,121.5C 125.5,122.833 126.167,123.5 127.5,123.5C 128.833,124.167 130.167,124.833 131.5,125.5C 131.5,125.833 131.5,126.167 131.5,126.5C 127.166,125 123.166,123 119.5,120.5 Z"/></g>
<g><path style="opacity:1" fill="#2c2c2c" d="M 43.5,122.5 C 44.9641,124.63 46.9641,125.963 49.5,126.5C 49.5,127.167 49.5,127.833 49.5,128.5C 48.1667,128.5 46.8333,128.5 45.5,128.5C 45.1692,126.678 44.5025,125.011 43.5,123.5C 43.5,123.167 43.5,122.833 43.5,122.5 Z"/></g>
<g><path style="opacity:1" fill="#737373" d="M 67.5,114.5 C 67.5,114.833 67.5,115.167 67.5,115.5C 60.9595,119.034 54.9595,123.367 49.5,128.5C 49.5,127.833 49.5,127.167 49.5,126.5C 54.7304,121.256 60.7304,117.256 67.5,114.5 Z"/></g>
<g><path style="opacity:1" fill="#bbbbbb" d="M 127.5,123.5 C 127.5,123.167 127.5,122.833 127.5,122.5C 130.077,122.455 132.077,123.455 133.5,125.5C 132.833,125.5 132.167,125.5 131.5,125.5C 130.167,124.833 128.833,124.167 127.5,123.5 Z"/></g>
<g><path style="opacity:1" fill="#4a4a4a" d="M 70.5,123.5 C 69.5557,125.688 67.889,127.021 65.5,127.5C 65.5,127.167 65.5,126.833 65.5,126.5C 66.8993,125.11 68.5659,124.11 70.5,123.5 Z"/></g>
<g><path style="opacity:1" fill="#717171" d="M 131.5,126.5 C 131.5,126.167 131.5,125.833 131.5,125.5C 132.167,125.5 132.833,125.5 133.5,125.5C 133.833,126.167 134.167,126.833 134.5,127.5C 133.391,127.443 132.391,127.11 131.5,126.5 Z"/></g>
<g><path style="opacity:1" fill="#aaaaaa" d="M 30.5,112.5 C 33.1727,119.726 36.1727,127.06 39.5,134.5C 39.1667,134.5 38.8333,134.5 38.5,134.5C 38.0679,133.29 37.4013,132.29 36.5,131.5C 36.2451,129.033 35.2451,127.033 33.5,125.5C 33.3862,123.282 32.7196,121.282 31.5,119.5C 31.5,118.167 31.5,116.833 31.5,115.5C 31.4431,114.391 31.1098,113.391 30.5,112.5 Z"/></g>
<g><path style="opacity:1" fill="#8b8b8b" d="M 157.5,121.5 C 157.071,124.147 155.738,126.147 153.5,127.5C 153.5,127.167 153.5,126.833 153.5,126.5C 154.487,124.449 155.82,122.782 157.5,121.5 Z"/></g>
<g><path style="opacity:1" fill="#ababab" d="M 165.5,122.5 C 164.833,124.833 164.167,127.167 163.5,129.5C 163.167,129.5 162.833,129.5 162.5,129.5C 162.182,126.519 163.182,124.185 165.5,122.5 Z"/></g>
<g><path style="opacity:1" fill="#707070" d="M 134.5,127.5 C 136.027,127.427 137.027,128.094 137.5,129.5C 135.973,129.573 134.973,128.906 134.5,127.5 Z"/></g>
<g><path style="opacity:1" fill="#acacac" d="M 42.5,123.5 C 42.8333,123.5 43.1667,123.5 43.5,123.5C 44.5025,125.011 45.1692,126.678 45.5,128.5C 46.8333,128.5 48.1667,128.5 49.5,128.5C 45.1191,130.117 42.7858,128.45 42.5,123.5 Z"/></g>
<g><path style="opacity:1" fill="#2d2d2d" d="M 33.5,125.5 C 35.2451,127.033 36.2451,129.033 36.5,131.5C 34.7549,129.967 33.7549,127.967 33.5,125.5 Z"/></g>
<g><path style="opacity:1" fill="#818181" d="M 65.5,126.5 C 65.5,126.833 65.5,127.167 65.5,127.5C 62.2085,129.458 59.2085,131.791 56.5,134.5C 56.1667,134.5 55.8333,134.5 55.5,134.5C 57.9489,130.717 61.2822,128.05 65.5,126.5 Z"/></g>
<g><path style="opacity:1" fill="#707070" d="M 137.5,129.5 C 140.089,130.419 142.089,132.086 143.5,134.5C 140.911,133.581 138.911,131.914 137.5,129.5 Z"/></g>
<g><path style="opacity:1" fill="#424242" d="M 162.5,129.5 C 162.833,129.5 163.167,129.5 163.5,129.5C 163.071,132.147 161.738,134.147 159.5,135.5C 160.508,133.456 161.508,131.456 162.5,129.5 Z"/></g>
<g><path style="opacity:1" fill="#404040" d="M 38.5,134.5 C 38.8333,134.5 39.1667,134.5 39.5,134.5C 40.6005,135.605 41.2671,136.938 41.5,138.5C 39.7376,137.738 38.7376,136.404 38.5,134.5 Z"/></g>
<g><path style="opacity:1" fill="#bababa" d="M 39.5,134.5 C 42.0858,135.487 43.4191,137.487 43.5,140.5C 42.5,140.167 41.8333,139.5 41.5,138.5C 41.2671,136.938 40.6005,135.605 39.5,134.5 Z"/></g>
<g><path style="opacity:1" fill="#5d5d5d" d="M 55.5,134.5 C 55.8333,134.5 56.1667,134.5 56.5,134.5C 55.8592,135.482 55.1925,136.482 54.5,137.5C 56.1897,139.519 57.8564,141.519 59.5,143.5C 55.4235,142.273 53.5902,139.607 54,135.5C 54.3826,134.944 54.8826,134.611 55.5,134.5 Z"/></g>
<g><path style="opacity:1" fill="#4e4e4e" d="M 159.5,135.5 C 159.573,137.027 158.906,138.027 157.5,138.5C 157.427,136.973 158.094,135.973 159.5,135.5 Z"/></g>
<g><path style="opacity:1" fill="#b2b2b2" d="M 43.5,140.5 C 45.5,140.5 46.5,141.5 46.5,143.5C 45.8333,143.167 45.1667,142.833 44.5,142.5C 44.1667,141.833 43.8333,141.167 43.5,140.5 Z"/></g>
<g><path style="opacity:1" fill="#5c5c5c" d="M 156.5,139.5 C 153.564,144.105 149.898,148.105 145.5,151.5C 145.5,151.167 145.5,150.833 145.5,150.5C 148.833,146.5 152.5,142.833 156.5,139.5 Z"/></g>
<g><path style="opacity:1" fill="#b3b3b3" d="M 47.5,144.5 C 49.5,144.5 50.5,145.5 50.5,147.5C 49.1667,146.833 48.1667,145.833 47.5,144.5 Z"/></g>
<g><path style="opacity:1" fill="#2e2e2e" d="M 44.5,142.5 C 45.1667,142.833 45.8333,143.167 46.5,143.5C 47.1667,143.5 47.5,143.833 47.5,144.5C 48.1667,145.833 49.1667,146.833 50.5,147.5C 51.3382,147.842 51.6716,148.508 51.5,149.5C 47.9917,148.263 45.6584,145.93 44.5,142.5 Z"/></g>
<g><path style="opacity:1" fill="#595959" d="M 59.5,143.5 C 61.7488,144.08 63.4154,145.413 64.5,147.5C 63.8333,147.5 63.1667,147.5 62.5,147.5C 61.5,146.167 60.5,144.833 59.5,143.5 Z"/></g>
<g><path style="opacity:1" fill="#6f6f6f" d="M 143.5,140.5 C 140.544,143.968 137.211,146.968 133.5,149.5C 131.833,150.167 130.167,150.833 128.5,151.5C 133.214,147.454 138.214,143.788 143.5,140.5 Z"/></g>
<g><path style="opacity:1" fill="#7f7f7f" d="M 53.5,150.5 C 55.0618,150.733 56.3951,151.4 57.5,152.5C 57.8333,153.167 58.1667,153.833 58.5,154.5C 56.2512,153.92 54.5846,152.587 53.5,150.5 Z"/></g>
<g><path style="opacity:1" fill="#bcbcbc" d="M 62.5,147.5 C 63.1667,147.5 63.8333,147.5 64.5,147.5C 68.6963,150.932 73.3629,153.265 78.5,154.5C 78.5,154.833 78.5,155.167 78.5,155.5C 72.2656,154.383 66.9322,151.716 62.5,147.5 Z"/></g>
<g><path style="opacity:1" fill="#c0c0c0" d="M 57.5,152.5 C 59.4341,153.11 61.1007,154.11 62.5,155.5C 61.8333,155.5 61.1667,155.5 60.5,155.5C 59.5084,155.672 58.8417,155.338 58.5,154.5C 58.1667,153.833 57.8333,153.167 57.5,152.5 Z"/></g>
<g><path style="opacity:1" fill="#5c5c5c" d="M 127.5,151.5 C 126.365,153.213 124.698,153.88 122.5,153.5C 123.93,152.463 125.597,151.796 127.5,151.5 Z"/></g>
<g><path style="opacity:1" fill="#d1d1d1" d="M 133.5,149.5 C 129.42,153.54 124.42,155.873 118.5,156.5C 118.5,156.167 118.5,155.833 118.5,155.5C 120.027,155.573 121.027,154.906 121.5,153.5C 121.833,153.5 122.167,153.5 122.5,153.5C 124.698,153.88 126.365,153.213 127.5,151.5C 127.833,151.5 128.167,151.5 128.5,151.5C 130.167,150.833 131.833,150.167 133.5,149.5 Z"/></g>
<g><path style="opacity:1" fill="#959595" d="M 145.5,150.5 C 145.5,150.833 145.5,151.167 145.5,151.5C 143.518,152.807 141.518,154.141 139.5,155.5C 138.391,155.557 137.391,155.89 136.5,156.5C 138.921,153.778 141.921,151.778 145.5,150.5 Z"/></g>
<g><path style="opacity:1" fill="#494949" d="M 121.5,153.5 C 121.027,154.906 120.027,155.573 118.5,155.5C 116.435,155.517 114.435,155.85 112.5,156.5C 112.611,155.883 112.944,155.383 113.5,155C 116.207,154.605 118.873,154.105 121.5,153.5 Z"/></g>
<g><path style="opacity:1" fill="#5b5b5b" d="M 78.5,155.5 C 78.5,155.167 78.5,154.833 78.5,154.5C 81.9164,154.528 84.9164,155.528 87.5,157.5C 84.4261,157.127 81.4261,156.461 78.5,155.5 Z"/></g>
<g><path style="opacity:1" fill="#7f7f7f" d="M 118.5,155.5 C 118.5,155.833 118.5,156.167 118.5,156.5C 115.904,157.265 113.237,157.599 110.5,157.5C 110.842,156.662 111.508,156.328 112.5,156.5C 114.435,155.85 116.435,155.517 118.5,155.5 Z"/></g>
<g><path style="opacity:1" fill="#666666" d="M 60.5,155.5 C 61.1667,155.5 61.8333,155.5 62.5,155.5C 63.3065,156.728 64.3065,157.728 65.5,158.5C 65.5,158.833 65.5,159.167 65.5,159.5C 63.246,158.876 61.5794,157.543 60.5,155.5 Z"/></g>
<g><path style="opacity:1" fill="#9e9e9e" d="M 89.5,157.5 C 95.5,157.5 101.5,157.5 107.5,157.5C 105.085,158.814 102.252,159.481 99,159.5C 96.1667,159.333 93.3333,159.167 90.5,159C 89.944,158.617 89.6107,158.117 89.5,157.5 Z"/></g>
<g><path style="opacity:1" fill="#b4b4b4" d="M 65.5,159.5 C 65.5,159.167 65.5,158.833 65.5,158.5C 66.8734,158.343 68.2068,158.51 69.5,159C 71.8888,159.739 73.8888,160.905 75.5,162.5C 74.8333,162.5 74.1667,162.5 73.5,162.5C 70.8763,161.506 68.2097,160.506 65.5,159.5 Z"/></g>
<g><path style="opacity:1" fill="#a8a8a8" d="M 133.5,158.5 C 131.396,159.912 129.063,160.912 126.5,161.5C 128.185,159.182 130.519,158.182 133.5,158.5 Z"/></g>
<g><path style="opacity:1" fill="#3a3a3a" d="M 139.5,155.5 C 135.062,159.874 129.728,162.54 123.5,163.5C 123.5,163.167 123.5,162.833 123.5,162.5C 124.391,161.89 125.391,161.557 126.5,161.5C 129.063,160.912 131.396,159.912 133.5,158.5C 134.5,157.833 135.5,157.167 136.5,156.5C 137.391,155.89 138.391,155.557 139.5,155.5 Z"/></g>
<g><path style="opacity:1" fill="#2d2d2d" d="M 65.5,159.5 C 68.2097,160.506 70.8763,161.506 73.5,162.5C 70.224,162.856 67.5573,161.856 65.5,159.5 Z"/></g>
<g><path style="opacity:1" fill="#525252" d="M 73.5,162.5 C 74.1667,162.5 74.8333,162.5 75.5,162.5C 77.1667,163.167 78.8333,163.833 80.5,164.5C 80.5,164.833 80.5,165.167 80.5,165.5C 77.7282,165.241 75.3949,164.241 73.5,162.5 Z"/></g>
<g><path style="opacity:1" fill="#c7c7c7" d="M 123.5,162.5 C 123.5,162.833 123.5,163.167 123.5,163.5C 123.167,163.5 122.833,163.5 122.5,163.5C 120.302,163.12 118.635,163.787 117.5,165.5C 108.916,167.006 100.249,167.672 91.5,167.5C 88.0137,166.047 84.347,165.381 80.5,165.5C 80.5,165.167 80.5,164.833 80.5,164.5C 87.1973,164.286 93.864,164.619 100.5,165.5C 108.331,164.954 115.998,163.954 123.5,162.5 Z"/></g>
<g><path style="opacity:1" fill="#5e5e5e" d="M 122.5,163.5 C 121.07,164.537 119.403,165.204 117.5,165.5C 118.635,163.787 120.302,163.12 122.5,163.5 Z"/></g>
<g><path style="opacity:1" fill="#353535" d="M 117.5,165.5 C 115.502,166.148 113.502,166.981 111.5,168C 104.654,168.821 97.987,168.654 91.5,167.5C 100.249,167.672 108.916,167.006 117.5,165.5 Z"/></g>
</svg>
