<?xml version="1.0" encoding="UTF-8"?>
<!DOCTYPE svg PUBLIC "-//W3C//DTD SVG 1.1//EN" "http://www.w3.org/Graphics/SVG/1.1/DTD/svg11.dtd">
<svg xmlns="http://www.w3.org/2000/svg" version="1.1" width="214px" height="172px" style="shape-rendering:geometricPrecision; text-rendering:geometricPrecision; image-rendering:optimizeQuality; fill-rule:evenodd; clip-rule:evenodd" xmlns:xlink="http://www.w3.org/1999/xlink">
<g><path style="opacity:1" fill="#000000" d="M -0.5,-0.5 C 70.8333,-0.5 142.167,-0.5 213.5,-0.5C 213.5,56.8333 213.5,114.167 213.5,171.5C 142.167,171.5 70.8333,171.5 -0.5,171.5C -0.5,114.167 -0.5,56.8333 -0.5,-0.5 Z"/></g>
<g><path style="opacity:1" fill="#191919" d="M 162.5,25.5 C 161.167,25.5 159.833,25.5 158.5,25.5C 157.167,25.5 155.833,25.5 154.5,25.5C 154.154,21.333 151.82,19.4997 147.5,20C 119.833,19.3333 92.1667,19.3333 64.5,20C 61.5529,20.1118 60.2196,21.6118 60.5,24.5C 56.3604,26.1159 52.8604,28.7826 50,32.5C 47.6473,36.028 45.4807,39.6947 43.5,43.5C 43.1667,43.5 42.8333,43.5 42.5,43.5C 42.6741,41.139 43.0074,38.8056 43.5,36.5C 44.5,36.5 45.5,36.5 46.5,36.5C 47.7136,33.7465 49.2136,31.0799 51,28.5C 54.1675,25.0367 57.6675,21.87 61.5,19C 92.1667,18.3333 122.833,18.3333 153.5,19C 156.249,21.6895 159.249,23.8562 162.5,25.5 Z"/></g>
<g><path style="opacity:1" fill="#414141" d="M 158.5,25.5 C 158.5,25.8333 158.5,26.1667 158.5,26.5C 156.833,26.5 155.167,26.5 153.5,26.5C 150.276,23.2279 146.276,21.5612 141.5,21.5C 116.973,20.1909 92.3065,20.1909 67.5,21.5C 64.3247,20.9093 61.9913,21.9093 60.5,24.5C 60.2196,21.6118 61.5529,20.1118 64.5,20C 92.1667,19.3333 119.833,19.3333 147.5,20C 151.82,19.4997 154.154,21.333 154.5,25.5C 155.833,25.5 157.167,25.5 158.5,25.5 Z"/></g>
<g><path style="opacity:1" fill="#797979" d="M 141.5,21.5 C 119.831,21.3334 98.1641,21.5 76.5,22C 74.1667,22.3333 71.8333,22.6667 69.5,23C 68.6195,23.7083 67.9528,24.5416 67.5,25.5C 65.4352,25.5172 63.4352,25.8505 61.5,26.5C 63.5,24.8333 65.5,23.1667 67.5,21.5C 92.3065,20.1909 116.973,20.1909 141.5,21.5 Z"/></g>
<g><path style="opacity:1" fill="#b5b5b5" d="M 141.5,21.5 C 144.952,24.2188 148.952,25.8855 153.5,26.5C 153.833,27.1667 154.167,27.8333 154.5,28.5C 149.074,28.4405 144.407,26.6071 140.5,23C 135.845,22.5008 131.179,22.3342 126.5,22.5C 112.167,22.5 97.8333,22.5 83.5,22.5C 78.0154,23.1171 72.6821,24.1171 67.5,25.5C 67.9528,24.5416 68.6195,23.7083 69.5,23C 71.8333,22.6667 74.1667,22.3333 76.5,22C 98.1641,21.5 119.831,21.3334 141.5,21.5 Z"/></g>
<g><path style="opacity:1" fill="#818181" d="M 141.5,21.5 C 146.276,21.5612 150.276,23.2279 153.5,26.5C 148.952,25.8855 144.952,24.2188 141.5,21.5 Z"/></g>
<g><path style="opacity:1" fill="#525252" d="M 67.5,21.5 C 65.5,23.1667 63.5,24.8333 61.5,26.5C 60.1266,26.3433 58.7932,26.51 57.5,27C 56,29.8333 53.8333,32 51,33.5C 50.5172,34.448 50.3505,35.448 50.5,36.5C 50.1667,37.1667 49.8333,37.8333 49.5,38.5C 48.2641,40.6107 46.7641,42.6107 45,44.5C 44.8091,46.7078 44.3091,48.7078 43.5,50.5C 43.5,48.1667 43.5,45.8333 43.5,43.5C 45.4807,39.6947 47.6473,36.028 50,32.5C 52.8604,28.7826 56.3604,26.1159 60.5,24.5C 61.9913,21.9093 64.3247,20.9093 67.5,21.5 Z"/></g>
<g><path style="opacity:1" fill="#d3d3d3" d="M 83.5,22.5 C 82.1525,24.4803 80.1525,25.647 77.5,26C 73.5817,27.1564 69.5817,27.6564 65.5,27.5C 66.1667,26.8333 66.8333,26.1667 67.5,25.5C 72.6821,24.1171 78.0154,23.1171 83.5,22.5 Z"/></g>
<g><path style="opacity:1" fill="#dcdcdc" d="M 126.5,22.5 C 131.179,22.3342 135.845,22.5008 140.5,23C 144.407,26.6071 149.074,28.4405 154.5,28.5C 157.317,31.4257 160.151,34.4257 163,37.5C 164.906,45.5369 166.739,53.5369 168.5,61.5C 165.048,54.6924 163.048,47.3591 162.5,39.5C 161.448,39.3505 160.448,39.5172 159.5,40C 160.406,41.6995 160.739,43.5328 160.5,45.5C 160.167,45.5 159.833,45.5 159.5,45.5C 159.5,44.8333 159.5,44.1667 159.5,43.5C 159.5,42.1667 158.833,41.5 157.5,41.5C 157.262,39.5956 156.262,38.2623 154.5,37.5C 153.694,36.2719 152.694,35.2719 151.5,34.5C 149.615,32.6885 147.281,31.5218 144.5,31C 140.452,30.6958 136.452,30.1958 132.5,29.5C 115.341,28.5033 98.008,28.17 80.5,28.5C 98.8601,27.18 117.36,27.18 136,28.5C 137.811,27.9221 139.645,27.4221 141.5,27C 136.672,24.6745 131.672,23.1745 126.5,22.5 Z"/></g>
<g><path style="opacity:1" fill="#9c9c9c" d="M 67.5,25.5 C 66.8333,26.1667 66.1667,26.8333 65.5,27.5C 63.1944,27.9926 60.861,28.3259 58.5,28.5C 55.8333,31.1667 53.1667,33.8333 50.5,36.5C 50.3505,35.448 50.5172,34.448 51,33.5C 53.8333,32 56,29.8333 57.5,27C 58.7932,26.51 60.1266,26.3433 61.5,26.5C 63.4352,25.8505 65.4352,25.5172 67.5,25.5 Z"/></g>
<g><path style="opacity:1" fill="#afafaf" d="M 80.5,28.5 C 98.008,28.17 115.341,28.5033 132.5,29.5C 114.497,29.3334 96.4969,29.5001 78.5,30C 73.5726,30.2561 68.9059,31.4228 64.5,33.5C 64.1667,33.5 63.8333,33.5 63.5,33.5C 65.3854,31.6885 67.7187,30.5218 70.5,30C 73.8273,29.3897 77.1606,28.8897 80.5,28.5 Z"/></g>
<g><path style="opacity:1" fill="#6a6a6a" d="M 132.5,29.5 C 136.452,30.1958 140.452,30.6958 144.5,31C 147.281,31.5218 149.615,32.6885 151.5,34.5C 150.167,34.1667 148.833,33.8333 147.5,33.5C 147.167,33.5 146.833,33.5 146.5,33.5C 144.485,32.0762 142.152,31.4095 139.5,31.5C 119.847,30.4382 100.18,30.2716 80.5,31C 75.4295,31.0365 70.7628,32.2031 66.5,34.5C 65.8333,34.5 65.1667,34.5 64.5,34.5C 64.5,34.1667 64.5,33.8333 64.5,33.5C 68.9059,31.4228 73.5726,30.2561 78.5,30C 96.4969,29.5001 114.497,29.3334 132.5,29.5 Z"/></g>
<g><path style="opacity:1" fill="#1d1d1d" d="M 139.5,31.5 C 139.5,31.8333 139.5,32.1667 139.5,32.5C 117.497,32.3334 95.4975,32.5 73.5,33C 71.26,33.977 68.9267,34.477 66.5,34.5C 70.7628,32.2031 75.4295,31.0365 80.5,31C 100.18,30.2716 119.847,30.4382 139.5,31.5 Z"/></g>
<g><path style="opacity:1" fill="#3e3e3e" d="M 139.5,32.5 C 139.5,32.1667 139.5,31.8333 139.5,31.5C 142.152,31.4095 144.485,32.0762 146.5,33.5C 144.139,33.3259 141.806,32.9926 139.5,32.5 Z"/></g>
<g><path style="opacity:1" fill="#020202" d="M 139.5,32.5 C 141.806,32.9926 144.139,33.3259 146.5,33.5C 146.833,33.5 147.167,33.5 147.5,33.5C 149.008,36.0926 151.341,37.4259 154.5,37.5C 154.738,39.4044 155.738,40.7377 157.5,41.5C 158.833,41.5 159.5,42.1667 159.5,43.5C 159.5,44.1667 159.5,44.8333 159.5,45.5C 159.259,47.8984 159.926,49.8984 161.5,51.5C 161.5,72.5 161.5,93.5 161.5,114.5C 161.167,114.5 160.833,114.5 160.5,114.5C 159.115,119.499 157.449,124.499 155.5,129.5C 153.659,130.402 152.326,131.736 151.5,133.5C 148.994,134.75 146.327,135.416 143.5,135.5C 141.102,135.259 139.102,135.926 137.5,137.5C 117.833,137.5 98.1667,137.5 78.5,137.5C 77.5,137.5 76.5,137.5 75.5,137.5C 72.9796,136.082 70.3129,135.082 67.5,134.5C 65.1917,133.207 62.8583,131.874 60.5,130.5C 59.5,129.833 58.5,129.167 57.5,128.5C 57.5,127.833 57.5,127.167 57.5,126.5C 56.8989,122.465 56.0656,118.465 55,114.5C 54.5,94.8362 54.3334,75.1695 54.5,55.5C 55.6244,51.2143 56.6244,46.881 57.5,42.5C 58.9025,39.0347 61.2358,36.368 64.5,34.5C 65.1667,34.5 65.8333,34.5 66.5,34.5C 68.9267,34.477 71.26,33.977 73.5,33C 95.4975,32.5 117.497,32.3334 139.5,32.5 Z"/></g>
<g><path style="opacity:1" fill="#b1b1b1" d="M 154.5,28.5 C 157.77,28.3022 159.77,29.8022 160.5,33C 161.793,33.49 163.127,33.6567 164.5,33.5C 164.674,35.861 165.007,38.1944 165.5,40.5C 167.748,44.452 169.248,48.7853 170,53.5C 170.829,73.6709 170.662,93.6709 169.5,113.5C 169.83,95.992 169.497,78.6586 168.5,61.5C 166.739,53.5369 164.906,45.5369 163,37.5C 160.151,34.4257 157.317,31.4257 154.5,28.5 Z"/></g>
<g><path style="opacity:1" fill="#838383" d="M 153.5,26.5 C 155.167,26.5 156.833,26.5 158.5,26.5C 159.81,29.4732 161.81,31.8065 164.5,33.5C 163.127,33.6567 161.793,33.49 160.5,33C 159.77,29.8022 157.77,28.3022 154.5,28.5C 154.167,27.8333 153.833,27.1667 153.5,26.5 Z"/></g>
<g><path style="opacity:1" fill="#878787" d="M 63.5,33.5 C 63.8333,33.5 64.1667,33.5 64.5,33.5C 64.5,33.8333 64.5,34.1667 64.5,34.5C 61.2358,36.368 58.9025,39.0347 57.5,42.5C 56.8333,42.8333 56.1667,43.1667 55.5,43.5C 57.0642,39.2708 59.7308,35.9374 63.5,33.5 Z"/></g>
<g><path style="opacity:1" fill="#2f2f2f" d="M 147.5,33.5 C 148.833,33.8333 150.167,34.1667 151.5,34.5C 152.694,35.2719 153.694,36.2719 154.5,37.5C 151.341,37.4259 149.008,36.0926 147.5,33.5 Z"/></g>
<g><path style="opacity:1" fill="#494949" d="M 154.5,37.5 C 156.262,38.2623 157.262,39.5956 157.5,41.5C 155.738,40.7377 154.738,39.4044 154.5,37.5 Z"/></g>
<g><path style="opacity:1" fill="#2c2c2c" d="M 158.5,25.5 C 159.833,25.5 161.167,25.5 162.5,25.5C 164.541,29.1915 166.541,32.8581 168.5,36.5C 170.385,38.0532 171.385,40.0532 171.5,42.5C 170.728,41.3065 169.728,40.3065 168.5,39.5C 166.71,37.7278 165.377,35.7278 164.5,33.5C 161.81,31.8065 159.81,29.4732 158.5,26.5C 158.5,26.1667 158.5,25.8333 158.5,25.5 Z"/></g>
<g><path style="opacity:1" fill="#666666" d="M 164.5,33.5 C 165.377,35.7278 166.71,37.7278 168.5,39.5C 169.639,42.0037 170.306,44.6703 170.5,47.5C 169.251,44.9097 167.584,42.5764 165.5,40.5C 165.007,38.1944 164.674,35.861 164.5,33.5 Z"/></g>
<g><path style="opacity:1" fill="#818181" d="M 49.5,38.5 C 49.1934,42.7719 48.0268,46.7719 46,50.5C 45.5017,53.8168 45.335,57.1501 45.5,60.5C 44.5033,77.6586 44.17,94.992 44.5,112.5C 44.1667,112.5 43.8333,112.5 43.5,112.5C 43.5,91.8333 43.5,71.1667 43.5,50.5C 44.3091,48.7078 44.8091,46.7078 45,44.5C 46.7641,42.6107 48.2641,40.6107 49.5,38.5 Z"/></g>
<g><path style="opacity:1" fill="#b9b9b9" d="M 58.5,28.5 C 58.6495,29.552 58.4828,30.552 58,31.5C 54.9335,33.9034 52.6002,36.9034 51,40.5C 50.4661,44.7684 49.1327,48.7684 47,52.5C 46.502,55.4816 46.3354,58.4816 46.5,61.5C 46.1667,61.5 45.8333,61.5 45.5,61.5C 45.5,61.1667 45.5,60.8333 45.5,60.5C 45.335,57.1501 45.5017,53.8168 46,50.5C 48.0268,46.7719 49.1934,42.7719 49.5,38.5C 49.8333,37.8333 50.1667,37.1667 50.5,36.5C 53.1667,33.8333 55.8333,31.1667 58.5,28.5 Z"/></g>
<g><path style="opacity:1" fill="#3e3e3e" d="M 168.5,39.5 C 169.728,40.3065 170.728,41.3065 171.5,42.5C 172.657,70.428 172.824,98.428 172,126.5C 170.71,128.792 169.043,130.792 167,132.5C 167.066,136.266 165.233,138.266 161.5,138.5C 162.833,137.167 164.167,135.833 165.5,134.5C 165.517,132.435 165.85,130.435 166.5,128.5C 170.019,124.688 171.519,120.022 171,114.5C 171.822,92.094 171.655,69.7606 170.5,47.5C 170.306,44.6703 169.639,42.0037 168.5,39.5 Z"/></g>
<g><path style="opacity:1" fill="#777777" d="M 165.5,40.5 C 167.584,42.5764 169.251,44.9097 170.5,47.5C 171.655,69.7606 171.822,92.094 171,114.5C 171.519,120.022 170.019,124.688 166.5,128.5C 166.284,126.319 167.117,124.653 169,123.5C 169.498,120.183 169.665,116.85 169.5,113.5C 170.662,93.6709 170.829,73.6709 170,53.5C 169.248,48.7853 167.748,44.452 165.5,40.5 Z"/></g>
<g><path style="opacity:1" fill="#a3a3a3" d="M 45.5,60.5 C 45.5,60.8333 45.5,61.1667 45.5,61.5C 45.3334,78.8365 45.5001,96.1699 46,113.5C 46.036,115.941 46.8693,117.941 48.5,119.5C 49.4841,122.428 49.8174,125.428 49.5,128.5C 45.6932,123.968 44.0265,118.635 44.5,112.5C 44.17,94.992 44.5033,77.6586 45.5,60.5 Z"/></g>
<g><path style="opacity:1" fill="#d0d0d0" d="M 168.5,61.5 C 169.497,78.6586 169.83,95.992 169.5,113.5C 167.223,118.597 165.557,123.93 164.5,129.5C 164.152,122.045 164.818,114.712 166.5,107.5C 168.484,92.5364 169.151,77.2031 168.5,61.5 Z"/></g>
<g><path style="opacity:1" fill="#cacaca" d="M 45.5,61.5 C 45.8333,61.5 46.1667,61.5 46.5,61.5C 46.3334,78.17 46.5001,94.8367 47,111.5C 50.043,117.06 51.2096,123.06 50.5,129.5C 49.8333,129.5 49.5,129.167 49.5,128.5C 49.8174,125.428 49.4841,122.428 48.5,119.5C 46.8693,117.941 46.036,115.941 46,113.5C 45.5001,96.1699 45.3334,78.8365 45.5,61.5 Z"/></g>
<g><path style="opacity:1" fill="#959595" d="M 169.5,113.5 C 169.665,116.85 169.498,120.183 169,123.5C 167.117,124.653 166.284,126.319 166.5,128.5C 165.85,130.435 165.517,132.435 165.5,134.5C 164.833,134.5 164.167,134.5 163.5,134.5C 163.216,132.585 163.549,130.919 164.5,129.5C 165.557,123.93 167.223,118.597 169.5,113.5 Z"/></g>
<g><path style="opacity:1" fill="#616161" d="M 43.5,112.5 C 43.8333,112.5 44.1667,112.5 44.5,112.5C 44.0265,118.635 45.6932,123.968 49.5,128.5C 49.5,129.167 49.8333,129.5 50.5,129.5C 49.668,133.497 51.168,136.164 55,137.5C 55.4828,138.448 55.6495,139.448 55.5,140.5C 55.1667,140.5 54.8333,140.5 54.5,140.5C 50.9191,135.686 47.4191,130.686 44,125.5C 43.501,121.179 43.3343,116.846 43.5,112.5 Z"/></g>
<g><path style="opacity:1" fill="#333333" d="M 42.5,43.5 C 42.8333,43.5 43.1667,43.5 43.5,43.5C 43.5,45.8333 43.5,48.1667 43.5,50.5C 43.5,71.1667 43.5,91.8333 43.5,112.5C 43.3343,116.846 43.501,121.179 44,125.5C 47.4191,130.686 50.9191,135.686 54.5,140.5C 52.7105,139.123 50.7105,138.123 48.5,137.5C 47.8505,135.565 47.5172,133.565 47.5,131.5C 44.234,131.567 42.734,129.901 43,126.5C 42.5,98.8353 42.3334,71.1687 42.5,43.5 Z"/></g>
<g><path style="opacity:1" fill="#616161" d="M 163.5,134.5 C 164.167,134.5 164.833,134.5 165.5,134.5C 164.167,135.833 162.833,137.167 161.5,138.5C 160.833,139.167 160.167,139.833 159.5,140.5C 159.657,137.682 160.991,135.682 163.5,134.5 Z"/></g>
<g><path style="opacity:1" fill="#acacac" d="M 50.5,129.5 C 51.7255,130.937 52.7255,132.604 53.5,134.5C 56.8254,136.233 59.4921,138.566 61.5,141.5C 59.4352,141.483 57.4352,141.15 55.5,140.5C 55.6495,139.448 55.4828,138.448 55,137.5C 51.168,136.164 49.668,133.497 50.5,129.5 Z"/></g>
<g><path style="opacity:1" fill="#a2a2a2" d="M 163.5,134.5 C 160.991,135.682 159.657,137.682 159.5,140.5C 159.5,141.167 159.167,141.5 158.5,141.5C 156.833,141.5 155.167,141.5 153.5,141.5C 153.5,141.167 153.5,140.833 153.5,140.5C 156.132,139.101 158.465,137.268 160.5,135C 161.448,134.517 162.448,134.351 163.5,134.5 Z"/></g>
<g><path style="opacity:1" fill="#e4e4e4" d="M 83.5,22.5 C 97.8333,22.5 112.167,22.5 126.5,22.5C 131.672,23.1745 136.672,24.6745 141.5,27C 139.645,27.4221 137.811,27.9221 136,28.5C 117.36,27.18 98.8601,27.18 80.5,28.5C 77.1606,28.8897 73.8273,29.3897 70.5,30C 67.7187,30.5218 65.3854,31.6885 63.5,33.5C 59.7308,35.9374 57.0642,39.2708 55.5,43.5C 54.201,47.3705 53.5343,51.3705 53.5,55.5C 53.5,57.1667 53.5,58.8333 53.5,60.5C 52.1689,68.1376 51.5022,76.1376 51.5,84.5C 51.6667,92.5 51.8333,100.5 52,108.5C 52.21,110.058 52.71,111.391 53.5,112.5C 53.6871,116.913 54.3538,121.246 55.5,125.5C 55.427,127.027 56.0937,128.027 57.5,128.5C 58.5,131.5 60.5,133.5 63.5,134.5C 64.5137,135.674 65.847,136.34 67.5,136.5C 71.9756,139.069 76.9756,140.236 82.5,140C 98.3388,140.828 114.005,140.661 129.5,139.5C 130.167,139.5 130.833,139.5 131.5,139.5C 135.182,139.665 138.848,139.499 142.5,139C 143.056,138.617 143.389,138.117 143.5,137.5C 147.853,137.154 151.52,135.487 154.5,132.5C 154.5,131.833 154.833,131.5 155.5,131.5C 157.822,130.198 159.155,128.198 159.5,125.5C 159.5,124.5 159.5,123.5 159.5,122.5C 161.223,120.22 161.889,117.553 161.5,114.5C 161.5,93.5 161.5,72.5 161.5,51.5C 161.483,49.4352 161.15,47.4352 160.5,45.5C 160.739,43.5328 160.406,41.6995 159.5,40C 160.448,39.5172 161.448,39.3505 162.5,39.5C 163.048,47.3591 165.048,54.6924 168.5,61.5C 169.151,77.2031 168.484,92.5364 166.5,107.5C 164.818,114.712 164.152,122.045 164.5,129.5C 163.549,130.919 163.216,132.585 163.5,134.5C 162.448,134.351 161.448,134.517 160.5,135C 158.465,137.268 156.132,139.101 153.5,140.5C 149.818,140.335 146.152,140.501 142.5,141C 136.682,141.896 131.015,143.062 125.5,144.5C 126.598,143.603 126.598,142.77 125.5,142C 113.5,141.333 101.5,141.333 89.5,142C 88.1667,142.667 88.1667,143.333 89.5,144C 101.162,144.5 112.829,144.667 124.5,144.5C 111.673,145.66 98.6732,145.827 85.5,145C 79.75,142.873 73.75,141.707 67.5,141.5C 65.5,141.5 63.5,141.5 61.5,141.5C 59.4921,138.566 56.8254,136.233 53.5,134.5C 52.7255,132.604 51.7255,130.937 50.5,129.5C 51.2096,123.06 50.043,117.06 47,111.5C 46.5001,94.8367 46.3334,78.17 46.5,61.5C 46.3354,58.4816 46.502,55.4816 47,52.5C 49.1327,48.7684 50.4661,44.7684 51,40.5C 52.6002,36.9034 54.9335,33.9034 58,31.5C 58.4828,30.552 58.6495,29.552 58.5,28.5C 60.861,28.3259 63.1944,27.9926 65.5,27.5C 69.5817,27.6564 73.5817,27.1564 77.5,26C 80.1525,25.647 82.1525,24.4803 83.5,22.5 Z"/></g>
<g><path style="opacity:1" fill="#bebebe" d="M 67.5,136.5 C 70.1667,136.833 72.8333,137.167 75.5,137.5C 76.5,137.5 77.5,137.5 78.5,137.5C 81.977,138.323 85.6437,138.823 89.5,139C 102.829,139.5 116.163,139.667 129.5,139.5C 114.005,140.661 98.3388,140.828 82.5,140C 76.9756,140.236 71.9756,139.069 67.5,136.5 Z"/></g>
<g><path style="opacity:1" fill="#8b8b8b" d="M 154.5,132.5 C 151.52,135.487 147.853,137.154 143.5,137.5C 142.833,137.5 142.167,137.5 141.5,137.5C 142.167,136.833 142.833,136.167 143.5,135.5C 146.327,135.416 148.994,134.75 151.5,133.5C 152.391,132.89 153.391,132.557 154.5,132.5 Z"/></g>
<g><path style="opacity:1" fill="#515151" d="M 143.5,135.5 C 142.833,136.167 142.167,136.833 141.5,137.5C 140.833,137.5 140.167,137.5 139.5,137.5C 138.833,137.5 138.167,137.5 137.5,137.5C 139.102,135.926 141.102,135.259 143.5,135.5 Z"/></g>
<g><path style="opacity:1" fill="#676767" d="M 63.5,134.5 C 64.8333,134.5 66.1667,134.5 67.5,134.5C 70.3129,135.082 72.9796,136.082 75.5,137.5C 72.8333,137.167 70.1667,136.833 67.5,136.5C 65.847,136.34 64.5137,135.674 63.5,134.5 Z"/></g>
<g><path style="opacity:1" fill="#636363" d="M 155.5,129.5 C 155.5,130.167 155.5,130.833 155.5,131.5C 154.833,131.5 154.5,131.833 154.5,132.5C 153.391,132.557 152.391,132.89 151.5,133.5C 152.326,131.736 153.659,130.402 155.5,129.5 Z"/></g>
<g><path style="opacity:1" fill="#3f3f3f" d="M 60.5,130.5 C 62.8583,131.874 65.1917,133.207 67.5,134.5C 66.1667,134.5 64.8333,134.5 63.5,134.5C 62.5,133.167 61.5,131.833 60.5,130.5 Z"/></g>
<g><path style="opacity:1" fill="#acacac" d="M 159.5,125.5 C 159.155,128.198 157.822,130.198 155.5,131.5C 155.5,130.833 155.5,130.167 155.5,129.5C 156.667,127.959 158,126.625 159.5,125.5 Z"/></g>
<g><path style="opacity:1" fill="#a3a3a3" d="M 57.5,128.5 C 58.5,129.167 59.5,129.833 60.5,130.5C 61.5,131.833 62.5,133.167 63.5,134.5C 60.5,133.5 58.5,131.5 57.5,128.5 Z"/></g>
<g><path style="opacity:1" fill="#a9a9a9" d="M 55.5,125.5 C 56.1667,125.833 56.8333,126.167 57.5,126.5C 57.5,127.167 57.5,127.833 57.5,128.5C 56.0937,128.027 55.427,127.027 55.5,125.5 Z"/></g>
<g><path style="opacity:1" fill="#4a4a4a" d="M 93.5,117.5 C 92.8505,119.435 92.5172,121.435 92.5,123.5C 93.209,124.404 94.209,124.737 95.5,124.5C 94.4324,125.434 93.099,125.768 91.5,125.5C 91.3367,123.143 91.5034,120.81 92,118.5C 92.3826,117.944 92.8826,117.611 93.5,117.5 Z"/></g>
<g><path style="opacity:1" fill="#6f6f6f" d="M 98.5,119.5 C 98.8333,119.5 99.1667,119.5 99.5,119.5C 99.5,119.833 99.5,120.167 99.5,120.5C 98.5275,122.139 97.1942,123.473 95.5,124.5C 94.209,124.737 93.209,124.404 92.5,123.5C 93.791,123.737 94.791,123.404 95.5,122.5C 96.7281,121.694 97.7281,120.694 98.5,119.5 Z"/></g>
<g><path style="opacity:1" fill="#838383" d="M 160.5,114.5 C 160.833,114.5 161.167,114.5 161.5,114.5C 161.889,117.553 161.223,120.22 159.5,122.5C 159.833,119.833 160.167,117.167 160.5,114.5 Z"/></g>
<g><path style="opacity:1" fill="#383838" d="M 160.5,114.5 C 160.167,117.167 159.833,119.833 159.5,122.5C 159.5,123.5 159.5,124.5 159.5,125.5C 158,126.625 156.667,127.959 155.5,129.5C 157.449,124.499 159.115,119.499 160.5,114.5 Z"/></g>
<g><path style="opacity:1" fill="#a7a7a7" d="M 93.5,116.5 C 93.8333,116.5 94.1667,116.5 94.5,116.5C 94.6427,118.262 94.3094,119.929 93.5,121.5C 93.9569,122.298 94.6236,122.631 95.5,122.5C 94.791,123.404 93.791,123.737 92.5,123.5C 92.5172,121.435 92.8505,119.435 93.5,117.5C 93.5,117.167 93.5,116.833 93.5,116.5 Z"/></g>
<g><path style="opacity:1" fill="#d8d8d8" d="M 97.5,110.5 C 97.4889,112.547 97.1556,114.547 96.5,116.5C 96.7472,117.713 97.4138,118.38 98.5,118.5C 98.5,118.833 98.5,119.167 98.5,119.5C 97.7281,120.694 96.7281,121.694 95.5,122.5C 94.6236,122.631 93.9569,122.298 93.5,121.5C 94.3094,119.929 94.6427,118.262 94.5,116.5C 94.8333,115.167 95.1667,113.833 95.5,112.5C 96.1667,111.833 96.8333,111.167 97.5,110.5 Z"/></g>
<g><path style="opacity:1" fill="#3f3f3f" d="M 104.5,114.5 C 103.581,117.089 101.914,119.089 99.5,120.5C 99.5,120.167 99.5,119.833 99.5,119.5C 100.833,117.5 102.5,115.833 104.5,114.5 Z"/></g>
<g><path style="opacity:1" fill="#676767" d="M 95.5,112.5 C 95.1667,113.833 94.8333,115.167 94.5,116.5C 94.1667,116.5 93.8333,116.5 93.5,116.5C 93.1568,114.517 93.8235,113.183 95.5,112.5 Z"/></g>
<g><path style="opacity:1" fill="#393939" d="M 108.5,109.5 C 108.573,111.027 107.906,112.027 106.5,112.5C 106.427,110.973 107.094,109.973 108.5,109.5 Z"/></g>
<g><path style="opacity:1" fill="#8a8a8a" d="M 97.5,106.5 C 97.5,107.5 97.5,108.5 97.5,109.5C 97.5,109.833 97.5,110.167 97.5,110.5C 96.8333,111.167 96.1667,111.833 95.5,112.5C 95.2594,110.102 95.9261,108.102 97.5,106.5 Z"/></g>
<g><path style="opacity:1" fill="#999999" d="M 111.5,104.5 C 111.833,104.5 112.167,104.5 112.5,104.5C 112.5,104.833 112.5,105.167 112.5,105.5C 110.833,106.5 109.5,107.833 108.5,109.5C 107.094,109.973 106.427,110.973 106.5,112.5C 105.5,112.833 104.833,113.5 104.5,114.5C 102.5,115.833 100.833,117.5 99.5,119.5C 99.1667,119.5 98.8333,119.5 98.5,119.5C 98.5,119.167 98.5,118.833 98.5,118.5C 102.843,113.792 107.176,109.125 111.5,104.5 Z"/></g>
<g><path style="opacity:1" fill="#6b6b6b" d="M 99.5,101.5 C 99.3404,103.153 98.6737,104.486 97.5,105.5C 97.1568,103.517 97.8235,102.183 99.5,101.5 Z"/></g>
<g><path style="opacity:1" fill="#393939" d="M 117.5,98.5 C 117.833,98.5 118.167,98.5 118.5,98.5C 117.2,101.432 115.2,103.766 112.5,105.5C 112.5,105.167 112.5,104.833 112.5,104.5C 114.177,102.46 115.844,100.46 117.5,98.5 Z"/></g>
<g><path style="opacity:1" fill="#cbcbcb" d="M 101.5,92.5 C 102.935,98.6883 101.602,104.355 97.5,109.5C 97.5,108.5 97.5,107.5 97.5,106.5C 97.5,106.167 97.5,105.833 97.5,105.5C 98.6737,104.486 99.3404,103.153 99.5,101.5C 99.5,100.833 99.5,100.167 99.5,99.5C 100.117,99.3893 100.617,99.056 101,98.5C 101.495,96.5273 101.662,94.5273 101.5,92.5 Z"/></g>
<g><path style="opacity:1" fill="#333333" d="M 82.5,93.5 C 88.5,93.5 94.5,93.5 100.5,93.5C 100.768,95.099 100.434,96.4324 99.5,97.5C 99.5,96.5 99.5,95.5 99.5,94.5C 93.642,94.8222 87.9753,94.4889 82.5,93.5 Z"/></g>
<g><path style="opacity:1" fill="#6d6d6d" d="M 81.5,89.5 C 81.3284,90.4916 81.6618,91.1583 82.5,91.5C 88.6446,92.4902 94.9779,92.8235 101.5,92.5C 101.662,94.5273 101.495,96.5273 101,98.5C 100.617,99.056 100.117,99.3893 99.5,99.5C 99.5,98.8333 99.5,98.1667 99.5,97.5C 100.434,96.4324 100.768,95.099 100.5,93.5C 94.5,93.5 88.5,93.5 82.5,93.5C 81.8333,93.1667 81.1667,92.8333 80.5,92.5C 80.2627,91.209 80.596,90.209 81.5,89.5 Z"/></g>
<g><path style="opacity:1" fill="#d5d5d5" d="M 94.5,76.5 C 91.7942,81.3856 88.4609,85.8856 84.5,90C 90.5879,89.8744 96.2545,90.7077 101.5,92.5C 94.9779,92.8235 88.6446,92.4902 82.5,91.5C 85.7469,85.9174 89.7469,80.9174 94.5,76.5 Z"/></g>
<g><path style="opacity:1" fill="#1e1e1e" d="M 130.5,84.5 C 129.306,88.3633 126.973,91.3633 123.5,93.5C 125.458,90.2085 127.791,87.2085 130.5,84.5 Z"/></g>
<g><path style="opacity:1" fill="#646464" d="M 133.5,75.5 C 133.833,75.5 134.167,75.5 134.5,75.5C 134.66,77.1992 134.494,78.8659 134,80.5C 132.624,81.7051 131.458,83.0384 130.5,84.5C 127.791,87.2085 125.458,90.2085 123.5,93.5C 121.5,94.8333 119.833,96.5 118.5,98.5C 118.167,98.5 117.833,98.5 117.5,98.5C 122.095,91.8981 127.095,85.5648 132.5,79.5C 133.434,78.4324 133.768,77.099 133.5,75.5 Z"/></g>
<g><path style="opacity:1" fill="#a2a2a2" d="M 53.5,60.5 C 53.5,77.8333 53.5,95.1667 53.5,112.5C 52.71,111.391 52.21,110.058 52,108.5C 51.8333,100.5 51.6667,92.5 51.5,84.5C 51.5022,76.1376 52.1689,68.1376 53.5,60.5 Z"/></g>
<g><path style="opacity:1" fill="#c7c7c7" d="M 112.5,75.5 C 112.833,75.5 113.167,75.5 113.5,75.5C 119.645,76.4902 125.978,76.8235 132.5,76.5C 132.5,77.5 132.5,78.5 132.5,79.5C 127.095,85.5648 122.095,91.8981 117.5,98.5C 115.844,100.46 114.177,102.46 112.5,104.5C 112.167,104.5 111.833,104.5 111.5,104.5C 117.044,96.1094 123.211,88.1094 130,80.5C 130.483,79.552 130.649,78.552 130.5,77.5C 124.074,78.12 118.074,77.4533 112.5,75.5 Z"/></g>
<g><path style="opacity:1" fill="#a9a9a9" d="M 94.5,74.5 C 94.5,75.1667 94.5,75.8333 94.5,76.5C 89.7469,80.9174 85.7469,85.9174 82.5,91.5C 81.6618,91.1583 81.3284,90.4916 81.5,89.5C 84.8333,85.1667 88.1667,80.8333 91.5,76.5C 92.5,75.8333 93.5,75.1667 94.5,74.5 Z"/></g>
<g><path style="opacity:1" fill="#454545" d="M 91.5,75.5 C 91.5,75.8333 91.5,76.1667 91.5,76.5C 88.1667,80.8333 84.8333,85.1667 81.5,89.5C 80.596,90.209 80.2627,91.209 80.5,92.5C 79.4017,91.3991 79.235,90.0657 80,88.5C 83.6987,83.9728 87.532,79.6395 91.5,75.5 Z"/></g>
<g><path style="opacity:1" fill="#9f9f9f" d="M 113.5,75.5 C 119.833,75.5 126.167,75.5 132.5,75.5C 132.833,75.5 133.167,75.5 133.5,75.5C 133.768,77.099 133.434,78.4324 132.5,79.5C 132.5,78.5 132.5,77.5 132.5,76.5C 125.978,76.8235 119.645,76.4902 113.5,75.5 Z"/></g>
<g><path style="opacity:1" fill="#575757" d="M 115.5,69.5 C 115.167,70.8333 114.833,72.1667 114.5,73.5C 120.5,74.1667 126.5,74.8333 132.5,75.5C 126.167,75.5 119.833,75.5 113.5,75.5C 113.025,72.9179 113.692,70.9179 115.5,69.5 Z"/></g>
<g><path style="opacity:1" fill="#272727" d="M 114.5,73.5 C 120.842,73.3338 127.175,73.5005 133.5,74C 134.056,74.3826 134.389,74.8826 134.5,75.5C 134.167,75.5 133.833,75.5 133.5,75.5C 133.167,75.5 132.833,75.5 132.5,75.5C 126.5,74.8333 120.5,74.1667 114.5,73.5 Z"/></g>
<g><path style="opacity:1" fill="#3b3b3b" d="M 53.5,55.5 C 53.8333,55.5 54.1667,55.5 54.5,55.5C 54.3334,75.1695 54.5,94.8362 55,114.5C 56.0656,118.465 56.8989,122.465 57.5,126.5C 56.8333,126.167 56.1667,125.833 55.5,125.5C 54.3538,121.246 53.6871,116.913 53.5,112.5C 53.5,95.1667 53.5,77.8333 53.5,60.5C 53.5,58.8333 53.5,57.1667 53.5,55.5 Z"/></g>
<g><path style="opacity:1" fill="#b3b3b3" d="M 115.5,63.5 C 115.5,64.8333 115.5,66.1667 115.5,67.5C 115.5,68.1667 115.5,68.8333 115.5,69.5C 113.692,70.9179 113.025,72.9179 113.5,75.5C 113.167,75.5 112.833,75.5 112.5,75.5C 112.271,71.0827 113.271,67.0827 115.5,63.5 Z"/></g>
<g><path style="opacity:1" fill="#b8b8b8" d="M 100.5,67.5 C 99.2427,70.4274 97.2427,72.7607 94.5,74.5C 95.7573,71.5726 97.7573,69.2393 100.5,67.5 Z"/></g>
<g><path style="opacity:1" fill="#fafafa" d="M 166.5,107.5 C 165.169,100.03 164.502,92.1963 164.5,84C 164.667,76.1667 164.833,68.3333 165,60.5C 166.992,68.1858 167.825,76.0191 167.5,84C 167.328,91.8457 166.994,99.6791 166.5,107.5 Z"/></g>
<g><path style="opacity:1" fill="#fafafa" d="M 49.5,60.5 C 50.6613,75.9946 50.828,91.6612 50,107.5C 46.835,91.8764 46.6683,76.2097 49.5,60.5 Z"/></g>
<g><path style="opacity:1" fill="#bebebe" d="M 104.5,62.5 C 103.92,64.7488 102.587,66.4154 100.5,67.5C 101.08,65.2512 102.413,63.5846 104.5,62.5 Z"/></g>
<g><path style="opacity:1" fill="#454545" d="M 119.5,57.5 C 119.274,61.397 117.941,64.7303 115.5,67.5C 115.5,66.1667 115.5,64.8333 115.5,63.5C 116.931,62.2196 117.598,60.5529 117.5,58.5C 118.167,58.1667 118.833,57.8333 119.5,57.5 Z"/></g>
<g><path style="opacity:1" fill="#5a5a5a" d="M 105.5,59.5 C 105.443,60.609 105.11,61.609 104.5,62.5C 102.413,63.5846 101.08,65.2512 100.5,67.5C 97.7573,69.2393 95.7573,71.5726 94.5,74.5C 93.5,75.1667 92.5,75.8333 91.5,76.5C 91.5,76.1667 91.5,75.8333 91.5,75.5C 95.823,69.8451 100.49,64.5118 105.5,59.5 Z"/></g>
<g><path style="opacity:1" fill="#cbcbcb" d="M 108.5,57.5 C 107.864,59.7946 106.531,61.4613 104.5,62.5C 105.11,61.609 105.443,60.609 105.5,59.5C 106.5,58.8333 107.5,58.1667 108.5,57.5 Z"/></g>
<g><path style="opacity:1" fill="#7e7e7e" d="M 119.5,55.5 C 119.5,56.1667 119.5,56.8333 119.5,57.5C 118.833,57.8333 118.167,58.1667 117.5,58.5C 117.427,56.9731 118.094,55.9731 119.5,55.5 Z"/></g>
<g><path style="opacity:1" fill="#5b5b5b" d="M 109.5,54.5 C 109.5,55.1667 109.5,55.8333 109.5,56.5C 108.833,56.5 108.5,56.8333 108.5,57.5C 107.5,58.1667 106.5,58.8333 105.5,59.5C 106.08,57.2512 107.413,55.5846 109.5,54.5 Z"/></g>
<g><path style="opacity:1" fill="#262626" d="M 121.5,49.5 C 121.833,49.5 122.167,49.5 122.5,49.5C 122.38,52.5779 121.38,55.2446 119.5,57.5C 119.5,56.8333 119.5,56.1667 119.5,55.5C 119.5,54.8333 119.5,54.1667 119.5,53.5C 120.906,53.0269 121.573,52.0269 121.5,50.5C 121.5,50.1667 121.5,49.8333 121.5,49.5 Z"/></g>
<g><path style="opacity:1" fill="#bebebe" d="M 119.5,51.5 C 119.5,52.1667 119.5,52.8333 119.5,53.5C 119.5,54.1667 119.5,54.8333 119.5,55.5C 118.094,55.9731 117.427,56.9731 117.5,58.5C 117.598,60.5529 116.931,62.2196 115.5,63.5C 115.401,60.7628 115.735,58.0961 116.5,55.5C 117.857,54.4097 118.857,53.0764 119.5,51.5 Z"/></g>
<g><path style="opacity:1" fill="#bababa" d="M 117.5,46.5 C 116.5,48.5 115.5,50.5 114.5,52.5C 112.833,53.8333 111.167,55.1667 109.5,56.5C 109.5,55.8333 109.5,55.1667 109.5,54.5C 112.167,51.8333 114.833,49.1667 117.5,46.5 Z"/></g>
<g><path style="opacity:1" fill="#636363" d="M 121.5,50.5 C 121.573,52.0269 120.906,53.0269 119.5,53.5C 119.5,52.8333 119.5,52.1667 119.5,51.5C 120.167,51.1667 120.833,50.8333 121.5,50.5 Z"/></g>
<g><path style="opacity:1" fill="#fbfbfb" d="M 116.5,55.5 C 115.735,58.0961 115.401,60.7628 115.5,63.5C 113.271,67.0827 112.271,71.0827 112.5,75.5C 118.074,77.4533 124.074,78.12 130.5,77.5C 130.649,78.552 130.483,79.552 130,80.5C 123.211,88.1094 117.044,96.1094 111.5,104.5C 107.176,109.125 102.843,113.792 98.5,118.5C 97.4138,118.38 96.7472,117.713 96.5,116.5C 97.1556,114.547 97.4889,112.547 97.5,110.5C 97.5,110.167 97.5,109.833 97.5,109.5C 101.602,104.355 102.935,98.6883 101.5,92.5C 96.2545,90.7077 90.5879,89.8744 84.5,90C 88.4609,85.8856 91.7942,81.3856 94.5,76.5C 94.5,75.8333 94.5,75.1667 94.5,74.5C 97.2427,72.7607 99.2427,70.4274 100.5,67.5C 102.587,66.4154 103.92,64.7488 104.5,62.5C 106.531,61.4613 107.864,59.7946 108.5,57.5C 108.5,56.8333 108.833,56.5 109.5,56.5C 111.167,55.1667 112.833,53.8333 114.5,52.5C 115.117,52.3893 115.617,52.056 116,51.5C 116.49,52.7932 116.657,54.1266 116.5,55.5 Z"/></g>
<g><path style="opacity:1" fill="#838383" d="M 159.5,45.5 C 159.833,45.5 160.167,45.5 160.5,45.5C 161.15,47.4352 161.483,49.4352 161.5,51.5C 159.926,49.8984 159.259,47.8984 159.5,45.5 Z"/></g>
<g><path style="opacity:1" fill="#e6e6e6" d="M 118.5,45.5 C 119.586,45.62 120.253,46.2867 120.5,47.5C 120.154,48.8492 119.821,50.1825 119.5,51.5C 118.857,53.0764 117.857,54.4097 116.5,55.5C 116.657,54.1266 116.49,52.7932 116,51.5C 115.617,52.056 115.117,52.3893 114.5,52.5C 115.5,50.5 116.5,48.5 117.5,46.5C 117.5,45.8333 117.833,45.5 118.5,45.5 Z"/></g>
<g><path style="opacity:1" fill="#4a4a4a" d="M 57.5,42.5 C 56.6244,46.881 55.6244,51.2143 54.5,55.5C 54.1667,55.5 53.8333,55.5 53.5,55.5C 53.5343,51.3705 54.201,47.3705 55.5,43.5C 56.1667,43.1667 56.8333,42.8333 57.5,42.5 Z"/></g>
<g><path style="opacity:1" fill="#9a9a9a" d="M 118.5,45.5 C 119.209,44.596 120.209,44.2627 121.5,44.5C 121.5,46.1667 121.5,47.8333 121.5,49.5C 121.5,49.8333 121.5,50.1667 121.5,50.5C 120.833,50.8333 120.167,51.1667 119.5,51.5C 119.821,50.1825 120.154,48.8492 120.5,47.5C 120.253,46.2867 119.586,45.62 118.5,45.5 Z"/></g>
<g><path style="opacity:1" fill="#595959" d="M 122.5,49.5 C 122.167,49.5 121.833,49.5 121.5,49.5C 121.5,47.8333 121.5,46.1667 121.5,44.5C 120.209,44.2627 119.209,44.596 118.5,45.5C 117.833,45.5 117.5,45.8333 117.5,46.5C 114.833,49.1667 112.167,51.8333 109.5,54.5C 111.299,50.4313 113.966,46.9313 117.5,44C 119.134,43.5065 120.801,43.3398 122.5,43.5C 122.5,45.5 122.5,47.5 122.5,49.5 Z"/></g>
<g><path style="opacity:1" fill="#7d7d7d" d="M 157.5,41.5 C 158.833,41.5 159.5,42.1667 159.5,43.5C 158.167,43.5 157.5,42.8333 157.5,41.5 Z"/></g>
<g><path style="opacity:1" fill="#fafafa" d="M 89.5,23.5 C 101.505,23.3335 113.505,23.5001 125.5,24C 127.608,24.3599 129.608,25.0266 131.5,26C 115.5,26.6667 99.5,26.6667 83.5,26C 85.6115,25.1553 87.6115,24.322 89.5,23.5 Z"/></g>
<g><path style="opacity:1" fill="#111111" d="M 168.5,36.5 C 170.451,36.2267 171.951,36.8934 173,38.5C 175,68.8333 175,99.1667 173,129.5C 172.411,131.863 170.911,132.863 168.5,132.5C 168.657,133.873 168.49,135.207 168,136.5C 164.159,140.673 159.993,144.507 155.5,148C 153.285,149.044 150.952,149.71 148.5,150C 121.167,150.667 93.8333,150.667 66.5,150C 64.8333,149.667 63.1667,149.333 61.5,149C 58.0317,145.76 54.0317,143.26 49.5,141.5C 48.7542,140.264 48.4208,138.93 48.5,137.5C 50.7105,138.123 52.7105,139.123 54.5,140.5C 54.4142,141.496 54.7476,142.329 55.5,143C 56.8333,143.333 58.1667,143.667 59.5,144C 61.2226,147.808 64.2226,149.475 68.5,149C 92.6702,149.83 116.67,149.663 140.5,148.5C 143.57,148.632 146.57,148.299 149.5,147.5C 152.701,145.823 156.035,144.323 159.5,143C 161.037,141.89 161.703,140.39 161.5,138.5C 165.233,138.266 167.066,136.266 167,132.5C 169.043,130.792 170.71,128.792 172,126.5C 172.824,98.428 172.657,70.428 171.5,42.5C 171.385,40.0532 170.385,38.0532 168.5,36.5 Z"/></g>
<g><path style="opacity:1" fill="#292929" d="M 54.5,140.5 C 54.8333,140.5 55.1667,140.5 55.5,140.5C 57.8268,141.859 60.1601,143.359 62.5,145C 65.4453,146.131 68.4453,146.964 71.5,147.5C 94.3273,148.498 117.327,148.831 140.5,148.5C 116.67,149.663 92.6702,149.83 68.5,149C 64.2226,149.475 61.2226,147.808 59.5,144C 58.1667,143.667 56.8333,143.333 55.5,143C 54.7476,142.329 54.4142,141.496 54.5,140.5 Z"/></g>
<g><path style="opacity:1" fill="#363636" d="M 161.5,138.5 C 161.703,140.39 161.037,141.89 159.5,143C 156.035,144.323 152.701,145.823 149.5,147.5C 152.005,144.644 155.005,142.644 158.5,141.5C 159.167,141.5 159.5,141.167 159.5,140.5C 160.167,139.833 160.833,139.167 161.5,138.5 Z"/></g>
<g><path style="opacity:1" fill="#9c9c9c" d="M 61.5,141.5 C 63.5,141.5 65.5,141.5 67.5,141.5C 70.534,144.241 74.2007,145.741 78.5,146C 95.4967,146.5 112.497,146.667 129.5,146.5C 133.5,146.5 137.5,146.5 141.5,146.5C 119.673,147.497 97.673,147.831 75.5,147.5C 73.369,146.686 71.0356,146.186 68.5,146C 66.4078,143.964 64.0745,142.464 61.5,141.5 Z"/></g>
<g><path style="opacity:1" fill="#5e5e5e" d="M 153.5,141.5 C 155.167,141.5 156.833,141.5 158.5,141.5C 155.005,142.644 152.005,144.644 149.5,147.5C 146.57,148.299 143.57,148.632 140.5,148.5C 117.327,148.831 94.3273,148.498 71.5,147.5C 72.8333,147.5 74.1667,147.5 75.5,147.5C 97.673,147.831 119.673,147.497 141.5,146.5C 143.199,146.66 144.866,146.494 146.5,146C 148.324,143.495 150.657,141.995 153.5,141.5 Z"/></g>
<g><path style="opacity:1" fill="#d3d3d3" d="M 153.5,140.5 C 153.5,140.833 153.5,141.167 153.5,141.5C 151.833,141.5 150.167,141.5 148.5,141.5C 142.001,142.939 135.668,144.606 129.5,146.5C 112.497,146.667 95.4967,146.5 78.5,146C 74.2007,145.741 70.534,144.241 67.5,141.5C 73.75,141.707 79.75,142.873 85.5,145C 98.6732,145.827 111.673,145.66 124.5,144.5C 124.833,144.5 125.167,144.5 125.5,144.5C 131.015,143.062 136.682,141.896 142.5,141C 146.152,140.501 149.818,140.335 153.5,140.5 Z"/></g>
<g><path style="opacity:1" fill="#6a6a6a" d="M 55.5,140.5 C 57.4352,141.15 59.4352,141.483 61.5,141.5C 64.0745,142.464 66.4078,143.964 68.5,146C 71.0356,146.186 73.369,146.686 75.5,147.5C 74.1667,147.5 72.8333,147.5 71.5,147.5C 68.4453,146.964 65.4453,146.131 62.5,145C 60.1601,143.359 57.8268,141.859 55.5,140.5 Z"/></g>
<g><path style="opacity:1" fill="#bcbcbc" d="M 148.5,141.5 C 146.66,143.914 144.327,145.581 141.5,146.5C 137.5,146.5 133.5,146.5 129.5,146.5C 135.668,144.606 142.001,142.939 148.5,141.5 Z"/></g>
<g><path style="opacity:1" fill="#8f8f8f" d="M 148.5,141.5 C 150.167,141.5 151.833,141.5 153.5,141.5C 150.657,141.995 148.324,143.495 146.5,146C 144.866,146.494 143.199,146.66 141.5,146.5C 144.327,145.581 146.66,143.914 148.5,141.5 Z"/></g>
<g><path style="opacity:1" fill="#f8f8f8" d="M 125.5,144.5 C 125.167,144.5 124.833,144.5 124.5,144.5C 112.829,144.667 101.162,144.5 89.5,144C 88.1667,143.333 88.1667,142.667 89.5,142C 101.5,141.333 113.5,141.333 125.5,142C 126.598,142.77 126.598,143.603 125.5,144.5 Z"/></g>
<g><path style="opacity:1" fill="#c5c5c5" d="M 139.5,137.5 C 140.167,137.5 140.833,137.5 141.5,137.5C 142.167,137.5 142.833,137.5 143.5,137.5C 143.389,138.117 143.056,138.617 142.5,139C 138.848,139.499 135.182,139.665 131.5,139.5C 134.167,138.833 136.833,138.167 139.5,137.5 Z"/></g>
<g><path style="opacity:1" fill="#7c7c7c" d="M 78.5,137.5 C 98.1667,137.5 117.833,137.5 137.5,137.5C 138.167,137.5 138.833,137.5 139.5,137.5C 136.833,138.167 134.167,138.833 131.5,139.5C 130.833,139.5 130.167,139.5 129.5,139.5C 116.163,139.667 102.829,139.5 89.5,139C 85.6437,138.823 81.977,138.323 78.5,137.5 Z"/></g>
</svg>
