<?xml version="1.0" encoding="UTF-8"?>
<!DOCTYPE svg PUBLIC "-//W3C//DTD SVG 1.1//EN" "http://www.w3.org/Graphics/SVG/1.1/DTD/svg11.dtd">
<svg xmlns="http://www.w3.org/2000/svg" version="1.1" width="220px" height="178px" style="shape-rendering:geometricPrecision; text-rendering:geometricPrecision; image-rendering:optimizeQuality; fill-rule:evenodd; clip-rule:evenodd" xmlns:xlink="http://www.w3.org/1999/xlink">
<g><path style="opacity:1" fill="#000000" d="M -0.5,-0.5 C 72.8333,-0.5 146.167,-0.5 219.5,-0.5C 219.5,58.8333 219.5,118.167 219.5,177.5C 146.167,177.5 72.8333,177.5 -0.5,177.5C -0.5,118.167 -0.5,58.8333 -0.5,-0.5 Z"/></g>
<g><path style="opacity:1" fill="#2f2f2f" d="M 129.5,31.5 C 106.831,31.3334 84.1642,31.5 61.5,32C 57.7148,32.4074 54.0482,33.2407 50.5,34.5C 51.0577,33.2101 52.0577,32.3768 53.5,32C 55.8333,31.6667 58.1667,31.3333 60.5,31C 83.6703,30.1703 106.67,30.337 129.5,31.5 Z"/></g>
<g><path style="opacity:1" fill="#2e2e2e" d="M 130.5,31.5 C 134.675,31.188 138.675,31.8547 142.5,33.5C 143.298,33.9569 143.631,34.6236 143.5,35.5C 142.833,35.5 142.167,35.5 141.5,35.5C 140.508,35.6716 139.842,35.3382 139.5,34.5C 137.22,32.7773 134.553,32.1107 131.5,32.5C 130.833,32.5 130.5,32.1667 130.5,31.5 Z"/></g>
<g><path style="opacity:1" fill="#dedede" d="M 56.5,34.5 C 81.3278,33.5023 106.328,33.169 131.5,33.5C 134.167,33.8333 136.833,34.1667 139.5,34.5C 139.842,35.3382 140.508,35.6716 141.5,35.5C 141.833,36.1667 142.167,36.8333 142.5,37.5C 139.797,37.0481 137.13,36.3815 134.5,35.5C 108.509,34.5002 82.5085,34.1669 56.5,34.5 Z"/></g>
<g><path style="opacity:1" fill="#767676" d="M 131.5,33.5 C 131.5,33.1667 131.5,32.8333 131.5,32.5C 134.553,32.1107 137.22,32.7773 139.5,34.5C 136.833,34.1667 134.167,33.8333 131.5,33.5 Z"/></g>
<g><path style="opacity:1" fill="#fbfbfb" d="M 55.5,34.5 C 55.8333,34.5 56.1667,34.5 56.5,34.5C 82.5085,34.1669 108.509,34.5002 134.5,35.5C 137.13,36.3815 139.797,37.0481 142.5,37.5C 143.167,37.5 143.833,37.5 144.5,37.5C 144.5,38.1667 144.5,38.8333 144.5,39.5C 147.354,42.5582 149.187,46.2249 150,50.5C 150.169,65.3391 150.669,80.0057 151.5,94.5C 151.5,95.1667 151.5,95.8333 151.5,96.5C 156.363,97.2656 161.363,97.9322 166.5,98.5C 168.139,99.4725 169.473,100.806 170.5,102.5C 171.511,104.372 172.345,106.372 173,108.5C 173.5,120.162 173.667,131.829 173.5,143.5C 173.296,145.685 172.63,147.685 171.5,149.5C 168.908,151.568 165.908,152.901 162.5,153.5C 128.84,154.5 95.1733,154.833 61.5,154.5C 58.3716,153.368 55.0382,152.535 51.5,152C 49.2506,149.256 46.9172,146.756 44.5,144.5C 44.5,143.833 44.1667,143.5 43.5,143.5C 42.3885,112.848 42.2218,82.1809 43,51.5C 44.092,48.9556 44.7586,46.2889 45,43.5C 48.1263,39.8592 51.6263,36.8592 55.5,34.5 Z"/></g>
<g><path style="opacity:1" fill="#878787" d="M 129.5,31.5 C 129.833,31.5 130.167,31.5 130.5,31.5C 130.5,32.1667 130.833,32.5 131.5,32.5C 131.5,32.8333 131.5,33.1667 131.5,33.5C 106.328,33.169 81.3278,33.5023 56.5,34.5C 56.1667,34.5 55.8333,34.5 55.5,34.5C 53.8211,34.8923 52.1545,35.3923 50.5,36C 48.2968,38.3722 45.9635,40.5389 43.5,42.5C 45.0908,39.5691 47.0908,36.9024 49.5,34.5C 49.8333,34.5 50.1667,34.5 50.5,34.5C 54.0482,33.2407 57.7148,32.4074 61.5,32C 84.1642,31.5 106.831,31.3334 129.5,31.5 Z"/></g>
<g><path style="opacity:1" fill="#818181" d="M 141.5,35.5 C 142.167,35.5 142.833,35.5 143.5,35.5C 143.833,36.1667 144.167,36.8333 144.5,37.5C 143.833,37.5 143.167,37.5 142.5,37.5C 142.167,36.8333 141.833,36.1667 141.5,35.5 Z"/></g>
<g><path style="opacity:1" fill="#383838" d="M 143.5,35.5 C 146.167,36.1667 147.833,37.8333 148.5,40.5C 147.167,39.5 145.833,38.5 144.5,37.5C 144.167,36.8333 143.833,36.1667 143.5,35.5 Z"/></g>
<g><path style="opacity:1" fill="#484848" d="M 49.5,34.5 C 47.0908,36.9024 45.0908,39.5691 43.5,42.5C 41.8958,43.287 41.2291,44.6203 41.5,46.5C 40.7321,47.2625 40.2321,48.2625 40,49.5C 39.5,76.8313 39.3334,104.165 39.5,131.5C 38.5023,106.339 38.1689,81.0055 38.5,55.5C 37.8416,46.085 41.5083,39.085 49.5,34.5 Z"/></g>
<g><path style="opacity:1" fill="#e9e9e9" d="M 134.5,40.5 C 108.167,39.1667 81.8333,39.1667 55.5,40.5C 55.6107,39.8826 55.944,39.3826 56.5,39C 82.1667,38.3333 107.833,38.3333 133.5,39C 134.056,39.3826 134.389,39.8826 134.5,40.5 Z"/></g>
<g><path style="opacity:1" fill="#ababab" d="M 134.5,40.5 C 136.38,40.2291 137.713,40.8958 138.5,42.5C 135.904,41.7347 133.237,41.4013 130.5,41.5C 106.164,41.3334 81.8311,41.5 57.5,42C 56.5842,42.2784 55.9175,42.7784 55.5,43.5C 55.1667,43.5 54.8333,43.5 54.5,43.5C 52.9382,43.7329 51.6049,44.3995 50.5,45.5C 50.369,44.7611 50.5357,44.0944 51,43.5C 52.6516,42.6006 54.1516,41.6006 55.5,40.5C 81.8333,39.1667 108.167,39.1667 134.5,40.5 Z"/></g>
<g><path style="opacity:1" fill="#383838" d="M 130.5,41.5 C 130.5,41.8333 130.5,42.1667 130.5,42.5C 105.474,42.2046 80.4742,42.5379 55.5,43.5C 55.9175,42.7784 56.5842,42.2784 57.5,42C 81.8311,41.5 106.164,41.3334 130.5,41.5 Z"/></g>
<g><path style="opacity:1" fill="#707070" d="M 130.5,42.5 C 130.5,42.1667 130.5,41.8333 130.5,41.5C 133.237,41.4013 135.904,41.7347 138.5,42.5C 138.5,42.8333 138.5,43.1667 138.5,43.5C 138.5,43.8333 138.5,44.1667 138.5,44.5C 135.888,43.6295 133.221,42.9628 130.5,42.5 Z"/></g>
<g><path style="opacity:1" fill="#808080" d="M 144.5,37.5 C 145.833,38.5 147.167,39.5 148.5,40.5C 149.6,41.6049 150.267,42.9382 150.5,44.5C 150.5,45.1667 150.5,45.8333 150.5,46.5C 149.277,43.6018 147.277,41.2685 144.5,39.5C 144.5,38.8333 144.5,38.1667 144.5,37.5 Z"/></g>
<g><path style="opacity:1" fill="#040404" d="M 130.5,42.5 C 133.221,42.9628 135.888,43.6295 138.5,44.5C 140.21,50.935 141.043,57.6017 141,64.5C 141.5,90.4979 141.667,116.498 141.5,142.5C 127.516,143.833 113.183,144.499 98.5,144.5C 84.1667,144.333 69.8333,144.167 55.5,144C 54.7562,142.961 53.7562,142.461 52.5,142.5C 50.9805,139.421 50.1471,136.088 50,132.5C 49.5,105.835 49.3334,79.1687 49.5,52.5C 49.5,51.1667 49.5,49.8333 49.5,48.5C 51.5,47.1667 53.1667,45.5 54.5,43.5C 54.8333,43.5 55.1667,43.5 55.5,43.5C 80.4742,42.5379 105.474,42.2046 130.5,42.5 Z"/></g>
<g><path style="opacity:1" fill="#787878" d="M 54.5,43.5 C 53.1667,45.5 51.5,47.1667 49.5,48.5C 49.5569,47.391 49.8902,46.391 50.5,45.5C 51.6049,44.3995 52.9382,43.7329 54.5,43.5 Z"/></g>
<g><path style="opacity:1" fill="#a7a7a7" d="M 43.5,42.5 C 43.0733,45.0098 42.4067,47.3432 41.5,49.5C 41.5,48.5 41.5,47.5 41.5,46.5C 41.2291,44.6203 41.8958,43.287 43.5,42.5 Z"/></g>
<g><path style="opacity:1" fill="#3d3d3d" d="M 150.5,44.5 C 151.906,44.9731 152.573,45.9731 152.5,47.5C 152.5,49.5 152.5,51.5 152.5,53.5C 152.167,53.5 151.833,53.5 151.5,53.5C 151.802,50.9407 151.468,48.6074 150.5,46.5C 150.5,45.8333 150.5,45.1667 150.5,44.5 Z"/></g>
<g><path style="opacity:1" fill="#464646" d="M 126.5,57.5 C 126.167,57.5 125.833,57.5 125.5,57.5C 125.167,57.5 124.833,57.5 124.5,57.5C 124.389,56.8826 124.056,56.3826 123.5,56C 105.167,55.3333 86.8333,55.3333 68.5,56C 67.6195,56.7083 66.9528,57.5416 66.5,58.5C 65.5,59.1667 64.5,59.8333 63.5,60.5C 64.6836,57.1514 67.017,54.9847 70.5,54C 87.5,53.3333 104.5,53.3333 121.5,54C 123.881,54.2233 125.547,55.39 126.5,57.5 Z"/></g>
<g><path style="opacity:1" fill="#dddddd" d="M 55.5,34.5 C 51.6263,36.8592 48.1263,39.8592 45,43.5C 44.7586,46.2889 44.092,48.9556 43,51.5C 42.2218,82.1809 42.3885,112.848 43.5,143.5C 42.8333,142.5 42.1667,141.5 41.5,140.5C 41.5,140.167 41.5,139.833 41.5,139.5C 40.1891,109.451 40.1891,79.4514 41.5,49.5C 42.4067,47.3432 43.0733,45.0098 43.5,42.5C 45.9635,40.5389 48.2968,38.3722 50.5,36C 52.1545,35.3923 53.8211,34.8923 55.5,34.5 Z"/></g>
<g><path style="opacity:1" fill="#aeaeae" d="M 124.5,57.5 C 106.21,56.3597 87.877,56.193 69.5,57C 68.944,57.3826 68.6107,57.8826 68.5,58.5C 67.8333,58.5 67.1667,58.5 66.5,58.5C 66.9528,57.5416 67.6195,56.7083 68.5,56C 86.8333,55.3333 105.167,55.3333 123.5,56C 124.056,56.3826 124.389,56.8826 124.5,57.5 Z"/></g>
<g><path style="opacity:1" fill="#dfdfdf" d="M 124.5,57.5 C 124.833,57.5 125.167,57.5 125.5,57.5C 125.833,58.8333 126.167,60.1667 126.5,61.5C 124.5,59.833 122.166,58.6663 119.5,58C 102.456,57.1951 85.456,57.3618 68.5,58.5C 68.6107,57.8826 68.944,57.3826 69.5,57C 87.877,56.193 106.21,56.3597 124.5,57.5 Z"/></g>
<g><path style="opacity:1" fill="#fafafa" d="M 126.5,61.5 C 127.167,61.5 127.5,61.8333 127.5,62.5C 127.667,73.1719 127.5,83.8385 127,94.5C 126.495,96.5183 125.995,98.5183 125.5,100.5C 124.486,101.674 123.153,102.34 121.5,102.5C 104.497,102.667 87.4967,102.5 70.5,102C 69.7562,100.961 68.7562,100.461 67.5,100.5C 67.0919,99.3569 66.4252,98.3569 65.5,97.5C 64.3341,85.5139 64.1674,73.5139 65,61.5C 66.0386,60.7562 66.5386,59.7562 66.5,58.5C 67.1667,58.5 67.8333,58.5 68.5,58.5C 85.456,57.3618 102.456,57.1951 119.5,58C 122.166,58.6663 124.5,59.833 126.5,61.5 Z"/></g>
<g><path style="opacity:1" fill="#1a1a1a" d="M 38.5,55.5 C 38.1689,81.0055 38.5023,106.339 39.5,131.5C 39.5,133.167 39.5,134.833 39.5,136.5C 39.4095,139.152 40.0762,141.485 41.5,143.5C 41.5,143.833 41.5,144.167 41.5,144.5C 42.0798,146.749 43.4131,148.415 45.5,149.5C 46.1667,150.5 46.8333,151.5 47.5,152.5C 44.9438,151.457 42.7772,149.79 41,147.5C 39.1617,142.678 37.8283,137.678 37,132.5C 36.3333,107.167 36.3333,81.8333 37,56.5C 37.3826,55.944 37.8826,55.6107 38.5,55.5 Z"/></g>
<g><path style="opacity:1" fill="#454545" d="M 127.5,58.5 C 128.906,58.9731 129.573,59.9731 129.5,61.5C 128.094,61.0269 127.427,60.0269 127.5,58.5 Z"/></g>
<g><path style="opacity:1" fill="#cdcdcd" d="M 144.5,39.5 C 147.277,41.2685 149.277,43.6018 150.5,46.5C 151.468,48.6074 151.802,50.9407 151.5,53.5C 151.5,67.1667 151.5,80.8333 151.5,94.5C 150.669,80.0057 150.169,65.3391 150,50.5C 149.187,46.2249 147.354,42.5582 144.5,39.5 Z"/></g>
<g><path style="opacity:1" fill="#b0b0b0" d="M 138.5,44.5 C 138.5,44.1667 138.5,43.8333 138.5,43.5C 140.062,43.7329 141.395,44.3995 142.5,45.5C 142.491,47.3084 142.991,48.9751 144,50.5C 144.831,83.0026 144.664,115.336 143.5,147.5C 143.5,145.833 143.5,144.167 143.5,142.5C 143.667,112.498 143.5,82.4981 143,52.5C 142.768,51.2625 142.268,50.2625 141.5,49.5C 141.727,47.0672 140.727,45.4006 138.5,44.5 Z"/></g>
<g><path style="opacity:1" fill="#969696" d="M 48.5,48.5 C 48.8333,48.5 49.1667,48.5 49.5,48.5C 49.5,49.8333 49.5,51.1667 49.5,52.5C 48.1956,81.0204 48.1956,109.687 49.5,138.5C 48.7784,138.082 48.2784,137.416 48,136.5C 47.1829,107.125 47.3495,77.7912 48.5,48.5 Z"/></g>
<g><path style="opacity:1" fill="#646464" d="M 141.5,49.5 C 142.268,50.2625 142.768,51.2625 143,52.5C 143.5,82.4981 143.667,112.498 143.5,142.5C 143.167,142.5 142.833,142.5 142.5,142.5C 142.803,111.475 142.47,80.4752 141.5,49.5 Z"/></g>
<g><path style="opacity:1" fill="#565656" d="M 49.5,52.5 C 49.3334,79.1687 49.5,105.835 50,132.5C 50.1471,136.088 50.9805,139.421 52.5,142.5C 51.8333,142.167 51.1667,141.833 50.5,141.5C 49.596,140.791 49.2627,139.791 49.5,138.5C 48.1956,109.687 48.1956,81.0204 49.5,52.5 Z"/></g>
<g><path style="opacity:1" fill="#c4c4c4" d="M 66.5,58.5 C 66.5386,59.7562 66.0386,60.7562 65,61.5C 64.1674,73.5139 64.3341,85.5139 65.5,97.5C 66.4252,98.3569 67.0919,99.3569 67.5,100.5C 68.1667,101.5 68.8333,102.5 69.5,103.5C 68.8333,103.5 68.1667,103.5 67.5,103.5C 66.5423,102.038 65.3756,100.705 64,99.5C 63.5001,86.8377 63.3334,74.1711 63.5,61.5C 63.5,61.1667 63.5,60.8333 63.5,60.5C 64.5,59.8333 65.5,59.1667 66.5,58.5 Z"/></g>
<g><path style="opacity:1" fill="#c1c1c1" d="M 127.5,62.5 C 128.783,74.693 128.783,87.0263 127.5,99.5C 126.833,99.8333 126.167,100.167 125.5,100.5C 125.995,98.5183 126.495,96.5183 127,94.5C 127.5,83.8385 127.667,73.1719 127.5,62.5 Z"/></g>
<g><path style="opacity:1" fill="#858585" d="M 125.5,57.5 C 125.833,57.5 126.167,57.5 126.5,57.5C 127.167,57.5 127.5,57.8333 127.5,58.5C 127.427,60.0269 128.094,61.0269 129.5,61.5C 129.795,74.2164 129.462,86.883 128.5,99.5C 128.167,99.5 127.833,99.5 127.5,99.5C 128.783,87.0263 128.783,74.693 127.5,62.5C 127.5,61.8333 127.167,61.5 126.5,61.5C 126.167,60.1667 125.833,58.8333 125.5,57.5 Z"/></g>
<g><path style="opacity:1" fill="#2a2a2a" d="M 138.5,44.5 C 140.727,45.4006 141.727,47.0672 141.5,49.5C 142.47,80.4752 142.803,111.475 142.5,142.5C 142.167,142.5 141.833,142.5 141.5,142.5C 141.667,116.498 141.5,90.4979 141,64.5C 141.043,57.6017 140.21,50.935 138.5,44.5 Z"/></g>
<g><path style="opacity:1" fill="#121212" d="M 152.5,47.5 C 153.314,49.631 153.814,51.9644 154,54.5C 154.5,67.1623 154.667,79.8289 154.5,92.5C 157.187,92.3359 159.854,92.5026 162.5,93C 163.416,93.2784 164.082,93.7784 164.5,94.5C 160.865,93.8857 157.198,93.5524 153.5,93.5C 153.829,80.6557 153.495,67.989 152.5,55.5C 152.5,54.8333 152.5,54.1667 152.5,53.5C 152.5,51.5 152.5,49.5 152.5,47.5 Z"/></g>
<g><path style="opacity:1" fill="#3e3e3e" d="M 129.5,61.5 C 130.166,67.6576 130.5,73.991 130.5,80.5C 130.496,87.2037 129.83,93.537 128.5,99.5C 129.462,86.883 129.795,74.2164 129.5,61.5 Z"/></g>
<g><path style="opacity:1" fill="#dddddd" d="M 48.5,48.5 C 47.3495,77.7912 47.1829,107.125 48,136.5C 48.2784,137.416 48.7784,138.082 49.5,138.5C 49.2627,139.791 49.596,140.791 50.5,141.5C 50.5,142.167 50.5,142.833 50.5,143.5C 49.1154,142.426 47.9487,141.093 47,139.5C 46.3333,109.5 46.3333,79.5 47,49.5C 47.3826,48.944 47.8826,48.6107 48.5,48.5 Z"/></g>
<g><path style="opacity:1" fill="#7c7c7c" d="M 151.5,53.5 C 151.833,53.5 152.167,53.5 152.5,53.5C 152.5,54.1667 152.5,54.8333 152.5,55.5C 152.5,68.8333 152.5,82.1667 152.5,95.5C 156.371,95.185 160.038,95.5184 163.5,96.5C 159.5,96.5 155.5,96.5 151.5,96.5C 151.5,95.8333 151.5,95.1667 151.5,94.5C 151.5,80.8333 151.5,67.1667 151.5,53.5 Z"/></g>
<g><path style="opacity:1" fill="#383838" d="M 152.5,55.5 C 153.495,67.989 153.829,80.6557 153.5,93.5C 157.198,93.5524 160.865,93.8857 164.5,94.5C 165.71,94.9321 166.71,95.5987 167.5,96.5C 166.833,96.5 166.167,96.5 165.5,96.5C 164.833,96.5 164.167,96.5 163.5,96.5C 160.038,95.5184 156.371,95.185 152.5,95.5C 152.5,82.1667 152.5,68.8333 152.5,55.5 Z"/></g>
<g><path style="opacity:1" fill="#919191" d="M 41.5,46.5 C 41.5,47.5 41.5,48.5 41.5,49.5C 40.1891,79.4514 40.1891,109.451 41.5,139.5C 40.8333,138.5 40.1667,137.5 39.5,136.5C 39.5,134.833 39.5,133.167 39.5,131.5C 39.3334,104.165 39.5,76.8313 40,49.5C 40.2321,48.2625 40.7321,47.2625 41.5,46.5 Z"/></g>
<g><path style="opacity:1" fill="#e3e3e3" d="M 142.5,45.5 C 144.045,46.2297 144.878,47.563 145,49.5C 145.167,66 145.333,82.5 145.5,99C 145.5,115.847 144.833,132.347 143.5,148.5C 143.5,148.167 143.5,147.833 143.5,147.5C 144.664,115.336 144.831,83.0026 144,50.5C 142.991,48.9751 142.491,47.3084 142.5,45.5 Z"/></g>
<g><path style="opacity:1" fill="#c5c5c5" d="M 151.5,96.5 C 155.5,96.5 159.5,96.5 163.5,96.5C 164.167,96.5 164.833,96.5 165.5,96.5C 165.833,97.1667 166.167,97.8333 166.5,98.5C 161.363,97.9322 156.363,97.2656 151.5,96.5 Z"/></g>
<g><path style="opacity:1" fill="#dddddd" d="M 71.5,63.5 C 71.5,73.5 71.5,83.5 71.5,93.5C 71.5,94.5 71.5,95.5 71.5,96.5C 87.8367,96.6666 104.17,96.4999 120.5,96C 121.487,85.2483 121.82,74.415 121.5,63.5C 122.659,74.3255 122.826,85.3255 122,96.5C 121.5,97 121,97.5 120.5,98C 104.167,98.6667 87.8333,98.6667 71.5,98C 70.6667,97.1667 69.8333,96.3333 69,95.5C 68.3333,85.1667 68.3333,74.8333 69,64.5C 69.6708,63.7476 70.5041,63.4142 71.5,63.5 Z"/></g>
<g><path style="opacity:1" fill="#9c9c9c" d="M 119.5,63.5 C 120.167,63.5 120.833,63.5 121.5,63.5C 121.82,74.415 121.487,85.2483 120.5,96C 104.17,96.4999 87.8367,96.6666 71.5,96.5C 71.5,95.5 71.5,94.5 71.5,93.5C 71.8333,93.5 72.1667,93.5 72.5,93.5C 72.5,93.8333 72.5,94.1667 72.5,94.5C 87.9946,95.6613 103.661,95.828 119.5,95C 120.822,84.5001 120.822,74.0001 119.5,63.5 Z"/></g>
<g><path style="opacity:1" fill="#5c5c5c" d="M 71.5,63.5 C 87.5,63.5 103.5,63.5 119.5,63.5C 120.822,74.0001 120.822,84.5001 119.5,95C 103.661,95.828 87.9946,95.6613 72.5,94.5C 88.0091,94.8295 103.342,94.4962 118.5,93.5C 119.833,84.1667 119.833,74.8333 118.5,65.5C 103.342,64.5038 88.0091,64.1705 72.5,64.5C 72.5,74.1667 72.5,83.8333 72.5,93.5C 72.1667,93.5 71.8333,93.5 71.5,93.5C 71.5,83.5 71.5,73.5 71.5,63.5 Z"/></g>
<g><path style="opacity:1" fill="#020202" d="M 118.5,65.5 C 119.833,74.8333 119.833,84.1667 118.5,93.5C 103.5,93.5 88.5,93.5 73.5,93.5C 73.5,84.1667 73.5,74.8333 73.5,65.5C 88.5,65.5 103.5,65.5 118.5,65.5 Z"/></g>
<g><path style="opacity:1" fill="#262626" d="M 118.5,65.5 C 103.5,65.5 88.5,65.5 73.5,65.5C 73.5,74.8333 73.5,84.1667 73.5,93.5C 88.5,93.5 103.5,93.5 118.5,93.5C 103.342,94.4962 88.0091,94.8295 72.5,94.5C 72.5,94.1667 72.5,93.8333 72.5,93.5C 72.5,83.8333 72.5,74.1667 72.5,64.5C 88.0091,64.1705 103.342,64.5038 118.5,65.5 Z"/></g>
<g><path style="opacity:1" fill="#3a3a3a" d="M 167.5,96.5 C 171.565,98.2329 174.232,101.233 175.5,105.5C 175.167,105.5 174.833,105.5 174.5,105.5C 173.833,105.5 173.5,105.167 173.5,104.5C 171.909,101.569 169.909,98.9024 167.5,96.5 Z"/></g>
<g><path style="opacity:1" fill="#949494" d="M 165.5,96.5 C 166.167,96.5 166.833,96.5 167.5,96.5C 169.909,98.9024 171.909,101.569 173.5,104.5C 172.5,103.833 171.5,103.167 170.5,102.5C 169.473,100.806 168.139,99.4725 166.5,98.5C 166.167,97.8333 165.833,97.1667 165.5,96.5 Z"/></g>
<g><path style="opacity:1" fill="#515151" d="M 63.5,61.5 C 63.3334,74.1711 63.5001,86.8377 64,99.5C 65.3756,100.705 66.5423,102.038 67.5,103.5C 65.629,103.141 64.129,102.141 63,100.5C 62.1731,87.3268 62.3398,74.3268 63.5,61.5 Z"/></g>
<g><path style="opacity:1" fill="#d4d4d4" d="M 67.5,100.5 C 68.7562,100.461 69.7562,100.961 70.5,102C 87.4967,102.5 104.497,102.667 121.5,102.5C 121.5,102.833 121.5,103.167 121.5,103.5C 104.167,103.5 86.8333,103.5 69.5,103.5C 68.8333,102.5 68.1667,101.5 67.5,100.5 Z"/></g>
<g><path style="opacity:1" fill="#888888" d="M 127.5,99.5 C 127.443,100.609 127.11,101.609 126.5,102.5C 124.883,103.038 123.216,103.371 121.5,103.5C 121.5,103.167 121.5,102.833 121.5,102.5C 123.153,102.34 124.486,101.674 125.5,100.5C 126.167,100.167 126.833,99.8333 127.5,99.5 Z"/></g>
<g><path style="opacity:1" fill="#525252" d="M 126.5,102.5 C 125.653,103.966 124.32,104.8 122.5,105C 104.5,105.667 86.5,105.667 68.5,105C 67.944,104.617 67.6107,104.117 67.5,103.5C 68.1667,103.5 68.8333,103.5 69.5,103.5C 86.8333,103.5 104.167,103.5 121.5,103.5C 123.216,103.371 124.883,103.038 126.5,102.5 Z"/></g>
<g><path style="opacity:1" fill="#dadada" d="M 163.5,104.5 C 162.833,104.5 162.167,104.5 161.5,104.5C 158.435,103.182 155.269,103.182 152,104.5C 151.174,116.674 151.34,128.674 152.5,140.5C 152.5,141.167 152.833,141.5 153.5,141.5C 153.5,142.167 153.5,142.833 153.5,143.5C 153.5,144.167 153.5,144.833 153.5,145.5C 152.542,145.047 151.708,144.381 151,143.5C 150.333,130.167 150.333,116.833 151,103.5C 153.075,102.866 155.241,102.532 157.5,102.5C 159.952,102.539 161.952,103.206 163.5,104.5 Z"/></g>
<g><path style="opacity:1" fill="#979797" d="M 161.5,104.5 C 158.552,104.223 155.719,104.556 153,105.5C 152.5,117.162 152.333,128.829 152.5,140.5C 151.34,128.674 151.174,116.674 152,104.5C 155.269,103.182 158.435,103.182 161.5,104.5 Z"/></g>
<g><path style="opacity:1" fill="#595959" d="M 161.5,104.5 C 162.167,104.5 162.833,104.5 163.5,104.5C 163.5,104.833 163.5,105.167 163.5,105.5C 163.5,105.833 163.5,106.167 163.5,106.5C 160.298,105.3 157.131,105.3 154,106.5C 153.5,118.162 153.333,129.829 153.5,141.5C 152.833,141.5 152.5,141.167 152.5,140.5C 152.333,128.829 152.5,117.162 153,105.5C 155.719,104.556 158.552,104.223 161.5,104.5 Z"/></g>
<g><path style="opacity:1" fill="#060606" d="M 163.5,106.5 C 164.459,118.45 164.793,130.45 164.5,142.5C 164.167,143.167 163.833,143.833 163.5,144.5C 160.43,144.632 157.43,144.299 154.5,143.5C 154.167,143.5 153.833,143.5 153.5,143.5C 153.5,142.833 153.5,142.167 153.5,141.5C 153.333,129.829 153.5,118.162 154,106.5C 157.131,105.3 160.298,105.3 163.5,106.5 Z"/></g>
<g><path style="opacity:1" fill="#c4c4c4" d="M 170.5,102.5 C 171.5,103.167 172.5,103.833 173.5,104.5C 173.5,105.167 173.833,105.5 174.5,105.5C 174.829,118.344 174.495,131.011 173.5,143.5C 173.667,131.829 173.5,120.162 173,108.5C 172.345,106.372 171.511,104.372 170.5,102.5 Z"/></g>
<g><path style="opacity:1" fill="#575757" d="M 165.5,109.5 C 166.495,120.654 166.828,131.988 166.5,143.5C 165.5,143.833 164.833,144.5 164.5,145.5C 164.167,145.5 163.833,145.5 163.5,145.5C 163.5,145.167 163.5,144.833 163.5,144.5C 163.833,143.833 164.167,143.167 164.5,142.5C 165.495,131.679 165.828,120.679 165.5,109.5 Z"/></g>
<g><path style="opacity:1" fill="#999999" d="M 163.5,106.5 C 163.5,106.167 163.5,105.833 163.5,105.5C 165.619,105.468 166.952,106.468 167.5,108.5C 167.828,120.345 167.495,132.012 166.5,143.5C 166.828,131.988 166.495,120.654 165.5,109.5C 165.573,107.973 164.906,106.973 163.5,106.5 Z"/></g>
<g><path style="opacity:1" fill="#3d3d3d" d="M 175.5,106.5 C 176.268,107.263 176.768,108.263 177,109.5C 177.667,119.833 177.667,130.167 177,140.5C 176.722,141.416 176.222,142.082 175.5,142.5C 175.5,130.5 175.5,118.5 175.5,106.5 Z"/></g>
<g><path style="opacity:1" fill="#272727" d="M 163.5,106.5 C 164.906,106.973 165.573,107.973 165.5,109.5C 165.828,120.679 165.495,131.679 164.5,142.5C 164.793,130.45 164.459,118.45 163.5,106.5 Z"/></g>
<g><path style="opacity:1" fill="#d8d8d8" d="M 167.5,108.5 C 168.66,120.326 168.826,132.326 168,144.5C 164.888,148.447 161.054,149.447 156.5,147.5C 158.857,147.663 161.19,147.497 163.5,147C 164.056,146.617 164.389,146.117 164.5,145.5C 164.833,144.5 165.5,143.833 166.5,143.5C 167.495,132.012 167.828,120.345 167.5,108.5 Z"/></g>
<g><path style="opacity:1" fill="#8e8e8e" d="M 174.5,105.5 C 174.833,105.5 175.167,105.5 175.5,105.5C 175.5,105.833 175.5,106.167 175.5,106.5C 175.5,118.5 175.5,130.5 175.5,142.5C 175.5,143.833 175.5,145.167 175.5,146.5C 174.5,146.833 173.833,147.5 173.5,148.5C 172.833,148.833 172.167,149.167 171.5,149.5C 172.63,147.685 173.296,145.685 173.5,143.5C 174.495,131.011 174.829,118.344 174.5,105.5 Z"/></g>
<g><path style="opacity:1" fill="#7c7c7c" d="M 127.5,121.5 C 127.768,124.119 127.435,126.619 126.5,129C 106.169,129.5 85.8361,129.667 65.5,129.5C 65.5,129.167 65.5,128.833 65.5,128.5C 62.8555,125.783 62.8555,122.95 65.5,120C 75.8333,119.833 86.1667,119.667 96.5,119.5C 107.189,119.501 117.522,120.168 127.5,121.5 Z"/></g>
<g><path style="opacity:1" fill="#d4d4d4" d="M 65.5,128.5 C 65.2317,125.881 65.565,123.381 66.5,121C 86.1667,120.333 105.833,120.333 125.5,121C 126.833,123.333 126.833,125.667 125.5,128C 105.503,128.5 85.5028,128.667 65.5,128.5 Z"/></g>
<g><path style="opacity:1" fill="#fdfdfd" d="M 66.5,122.5 C 85.8333,122.5 105.167,122.5 124.5,122.5C 124.5,123.833 124.5,125.167 124.5,126.5C 105.167,126.5 85.8333,126.5 66.5,126.5C 66.5,125.167 66.5,123.833 66.5,122.5 Z"/></g>
<g><path style="opacity:1" fill="#2a2a2a" d="M 127.5,121.5 C 130.034,124.142 130.034,126.976 127.5,130C 106.663,130.829 85.9959,130.663 65.5,129.5C 85.8361,129.667 106.169,129.5 126.5,129C 127.435,126.619 127.768,124.119 127.5,121.5 Z"/></g>
<g><path style="opacity:1" fill="#585858" d="M 39.5,136.5 C 40.1667,137.5 40.8333,138.5 41.5,139.5C 41.5,139.833 41.5,140.167 41.5,140.5C 41.5,141.5 41.5,142.5 41.5,143.5C 40.0762,141.485 39.4095,139.152 39.5,136.5 Z"/></g>
<g><path style="opacity:1" fill="#b4b4b4" d="M 41.5,140.5 C 42.1667,141.5 42.8333,142.5 43.5,143.5C 44.1667,143.5 44.5,143.833 44.5,144.5C 45.1098,145.391 45.4431,146.391 45.5,147.5C 44.1667,146.5 42.8333,145.5 41.5,144.5C 41.5,144.167 41.5,143.833 41.5,143.5C 41.5,142.5 41.5,141.5 41.5,140.5 Z"/></g>
<g><path style="opacity:1" fill="#131313" d="M 52.5,142.5 C 53.7562,142.461 54.7562,142.961 55.5,144C 69.8333,144.167 84.1667,144.333 98.5,144.5C 113.183,144.499 127.516,143.833 141.5,142.5C 141.833,142.5 142.167,142.5 142.5,142.5C 142.5,143.5 142.5,144.5 142.5,145.5C 114.167,145.5 85.8333,145.5 57.5,145.5C 55.0672,145.727 53.4006,144.727 52.5,142.5 Z"/></g>
<g><path style="opacity:1" fill="#2b2b2b" d="M 154.5,143.5 C 157.43,144.299 160.43,144.632 163.5,144.5C 163.5,144.833 163.5,145.167 163.5,145.5C 159.848,147.285 156.848,146.618 154.5,143.5 Z"/></g>
<g><path style="opacity:1" fill="#414141" d="M 142.5,142.5 C 142.833,142.5 143.167,142.5 143.5,142.5C 143.5,144.167 143.5,145.833 143.5,147.5C 115.498,147.667 87.498,147.5 59.5,147C 58.5842,146.722 57.9175,146.222 57.5,145.5C 85.8333,145.5 114.167,145.5 142.5,145.5C 142.5,144.5 142.5,143.5 142.5,142.5 Z"/></g>
<g><path style="opacity:1" fill="#888888" d="M 153.5,143.5 C 153.833,143.5 154.167,143.5 154.5,143.5C 156.848,146.618 159.848,147.285 163.5,145.5C 163.833,145.5 164.167,145.5 164.5,145.5C 164.389,146.117 164.056,146.617 163.5,147C 161.19,147.497 158.857,147.663 156.5,147.5C 155.5,146.833 154.5,146.167 153.5,145.5C 153.5,144.833 153.5,144.167 153.5,143.5 Z"/></g>
<g><path style="opacity:1" fill="#656565" d="M 41.5,144.5 C 42.8333,145.5 44.1667,146.5 45.5,147.5C 45.5,148.167 45.5,148.833 45.5,149.5C 43.4131,148.415 42.0798,146.749 41.5,144.5 Z"/></g>
<g><path style="opacity:1" fill="#a6a6a6" d="M 50.5,141.5 C 51.1667,141.833 51.8333,142.167 52.5,142.5C 53.4006,144.727 55.0672,145.727 57.5,145.5C 57.9175,146.222 58.5842,146.722 59.5,147C 87.498,147.5 115.498,147.667 143.5,147.5C 143.5,147.833 143.5,148.167 143.5,148.5C 115.165,148.667 86.8314,148.5 58.5,148C 55.3515,147.262 52.6848,145.762 50.5,143.5C 50.5,142.833 50.5,142.167 50.5,141.5 Z"/></g>
<g><path style="opacity:1" fill="#595959" d="M 173.5,148.5 C 171.984,152.677 168.984,155.011 164.5,155.5C 167.238,154.174 169.571,152.174 171.5,149.5C 172.167,149.167 172.833,148.833 173.5,148.5 Z"/></g>
<g><path style="opacity:1" fill="#686868" d="M 45.5,149.5 C 48.1921,151.206 50.8588,152.872 53.5,154.5C 52.1667,154.5 50.8333,154.5 49.5,154.5C 49.1667,153.5 48.5,152.833 47.5,152.5C 46.8333,151.5 46.1667,150.5 45.5,149.5 Z"/></g>
<g><path style="opacity:1" fill="#d4d4d4" d="M 44.5,144.5 C 46.9172,146.756 49.2506,149.256 51.5,152C 55.0382,152.535 58.3716,153.368 61.5,154.5C 58.8333,154.5 56.1667,154.5 53.5,154.5C 50.8588,152.872 48.1921,151.206 45.5,149.5C 45.5,148.833 45.5,148.167 45.5,147.5C 45.4431,146.391 45.1098,145.391 44.5,144.5 Z"/></g>
<g><path style="opacity:1" fill="#cdcdcd" d="M 171.5,149.5 C 169.571,152.174 167.238,154.174 164.5,155.5C 164.167,155.5 163.833,155.5 163.5,155.5C 129.329,155.832 95.3292,155.498 61.5,154.5C 95.1733,154.833 128.84,154.5 162.5,153.5C 165.908,152.901 168.908,151.568 171.5,149.5 Z"/></g>
<g><path style="opacity:1" fill="#1c1c1c" d="M 175.5,146.5 C 174.205,152.462 170.538,156.129 164.5,157.5C 128.505,158.667 92.5046,158.833 56.5,158C 53.7187,157.478 51.3854,156.311 49.5,154.5C 50.8333,154.5 52.1667,154.5 53.5,154.5C 53.9175,155.222 54.5842,155.722 55.5,156C 91.669,156.831 127.669,156.664 163.5,155.5C 163.833,155.5 164.167,155.5 164.5,155.5C 168.984,155.011 171.984,152.677 173.5,148.5C 173.833,147.5 174.5,146.833 175.5,146.5 Z"/></g>
<g><path style="opacity:1" fill="#727272" d="M 53.5,154.5 C 56.1667,154.5 58.8333,154.5 61.5,154.5C 95.3292,155.498 129.329,155.832 163.5,155.5C 127.669,156.664 91.669,156.831 55.5,156C 54.5842,155.722 53.9175,155.222 53.5,154.5 Z"/></g>
</svg>
